%TF.GenerationSoftware,KiCad,Pcbnew,8.0.8*%
%TF.CreationDate,2025-05-02T07:16:06-04:00*%
%TF.ProjectId,DevBoard1,44657642-6f61-4726-9431-2e6b69636164,rev?*%
%TF.SameCoordinates,Original*%
%TF.FileFunction,Drillmap*%
%TF.FilePolarity,Positive*%
%FSLAX45Y45*%
G04 Gerber Fmt 4.5, Leading zero omitted, Abs format (unit mm)*
G04 Created by KiCad (PCBNEW 8.0.8) date 2025-05-02 07:16:06*
%MOMM*%
%LPD*%
G01*
G04 APERTURE LIST*
%ADD10C,0.050000*%
%ADD11C,0.200000*%
%ADD12C,0.100000*%
%ADD13C,0.130000*%
G04 APERTURE END LIST*
D10*
X8636000Y-4521200D02*
X10668000Y-4521200D01*
X10668000Y-9144000D01*
X8636000Y-9144000D01*
X8636000Y-4521200D01*
D11*
D12*
X9078200Y-7757400D02*
X9108200Y-7787400D01*
X9108200Y-7757400D02*
X9078200Y-7787400D01*
X9187600Y-6703300D02*
X9217600Y-6733300D01*
X9217600Y-6703300D02*
X9187600Y-6733300D01*
X9256000Y-7655800D02*
X9286000Y-7685800D01*
X9286000Y-7655800D02*
X9256000Y-7685800D01*
X9256000Y-8900400D02*
X9286000Y-8930400D01*
X9286000Y-8900400D02*
X9256000Y-8930400D01*
X9357600Y-8621000D02*
X9387600Y-8651000D01*
X9387600Y-8621000D02*
X9357600Y-8651000D01*
X9408400Y-7655800D02*
X9438400Y-7685800D01*
X9438400Y-7655800D02*
X9408400Y-7685800D01*
X9433800Y-8671800D02*
X9463800Y-8701800D01*
X9463800Y-8671800D02*
X9433800Y-8701800D01*
X9484600Y-8087600D02*
X9514600Y-8117600D01*
X9514600Y-8087600D02*
X9484600Y-8117600D01*
X9709980Y-8455900D02*
X9739980Y-8485900D01*
X9739980Y-8455900D02*
X9709980Y-8485900D01*
X9941800Y-8087600D02*
X9971800Y-8117600D01*
X9971800Y-8087600D02*
X9941800Y-8117600D01*
X9967200Y-8595600D02*
X9997200Y-8625600D01*
X9997200Y-8595600D02*
X9967200Y-8625600D01*
X9967200Y-8811500D02*
X9997200Y-8841500D01*
X9997200Y-8811500D02*
X9967200Y-8841500D01*
X9973200Y-8176500D02*
X10003200Y-8206500D01*
X10003200Y-8176500D02*
X9973200Y-8206500D01*
X9992600Y-6843000D02*
X10022600Y-6873000D01*
X10022600Y-6843000D02*
X9992600Y-6873000D01*
X10043400Y-7757400D02*
X10073400Y-7787400D01*
X10073400Y-7757400D02*
X10043400Y-7787400D01*
X10043400Y-8900400D02*
X10073400Y-8930400D01*
X10073400Y-8900400D02*
X10043400Y-8930400D01*
X10056100Y-8735300D02*
X10086100Y-8765300D01*
X10086100Y-8735300D02*
X10056100Y-8765300D01*
X9456200Y-6096000D02*
G75*
G02*
X9366200Y-6096000I-45000J0D01*
G01*
X9366200Y-6096000D02*
G75*
G02*
X9456200Y-6096000I45000J0D01*
G01*
X9583200Y-5842000D02*
G75*
G02*
X9493200Y-5842000I-45000J0D01*
G01*
X9493200Y-5842000D02*
G75*
G02*
X9583200Y-5842000I45000J0D01*
G01*
X9710200Y-6096000D02*
G75*
G02*
X9620200Y-6096000I-45000J0D01*
G01*
X9620200Y-6096000D02*
G75*
G02*
X9710200Y-6096000I45000J0D01*
G01*
X9837200Y-5842000D02*
G75*
G02*
X9747200Y-5842000I-45000J0D01*
G01*
X9747200Y-5842000D02*
G75*
G02*
X9837200Y-5842000I45000J0D01*
G01*
X8890000Y-7062000D02*
X8890000Y-7162000D01*
X8840000Y-7112000D02*
X8940000Y-7112000D01*
X8890000Y-7316000D02*
X8890000Y-7416000D01*
X8840000Y-7366000D02*
X8940000Y-7366000D01*
X8890000Y-7570000D02*
X8890000Y-7670000D01*
X8840000Y-7620000D02*
X8940000Y-7620000D01*
X8890000Y-7824000D02*
X8890000Y-7924000D01*
X8840000Y-7874000D02*
X8940000Y-7874000D01*
X8890000Y-8078000D02*
X8890000Y-8178000D01*
X8840000Y-8128000D02*
X8940000Y-8128000D01*
X8890000Y-8332000D02*
X8890000Y-8432000D01*
X8840000Y-8382000D02*
X8940000Y-8382000D01*
X8890000Y-8586000D02*
X8890000Y-8686000D01*
X8840000Y-8636000D02*
X8940000Y-8636000D01*
X8890000Y-8840000D02*
X8890000Y-8940000D01*
X8840000Y-8890000D02*
X8940000Y-8890000D01*
X9387840Y-7879880D02*
X9387840Y-7979880D01*
X9337840Y-7929880D02*
X9437840Y-7929880D01*
X9641840Y-7879880D02*
X9641840Y-7979880D01*
X9591840Y-7929880D02*
X9691840Y-7929880D01*
X9895840Y-7879880D02*
X9895840Y-7979880D01*
X9845840Y-7929880D02*
X9945840Y-7929880D01*
X10414000Y-7062000D02*
X10414000Y-7162000D01*
X10364000Y-7112000D02*
X10464000Y-7112000D01*
X10414000Y-7316000D02*
X10414000Y-7416000D01*
X10364000Y-7366000D02*
X10464000Y-7366000D01*
X10414000Y-7570000D02*
X10414000Y-7670000D01*
X10364000Y-7620000D02*
X10464000Y-7620000D01*
X10414000Y-7824000D02*
X10414000Y-7924000D01*
X10364000Y-7874000D02*
X10464000Y-7874000D01*
X10414000Y-8078000D02*
X10414000Y-8178000D01*
X10364000Y-8128000D02*
X10464000Y-8128000D01*
X10414000Y-8332000D02*
X10414000Y-8432000D01*
X10364000Y-8382000D02*
X10464000Y-8382000D01*
X10414000Y-8586000D02*
X10414000Y-8686000D01*
X10364000Y-8636000D02*
X10464000Y-8636000D01*
X10414000Y-8840000D02*
X10414000Y-8940000D01*
X10364000Y-8890000D02*
X10464000Y-8890000D01*
D13*
X9416402Y-4821162D02*
X9416402Y-4729238D01*
X9324478Y-4729238D01*
X9324478Y-4821162D01*
X9416402Y-4821162D01*
X9916402Y-4821162D02*
X9916402Y-4729238D01*
X9824478Y-4729238D01*
X9824478Y-4821162D01*
X9916402Y-4821162D01*
D11*
X8894277Y-9457984D02*
X8894277Y-9257984D01*
X8894277Y-9257984D02*
X8941896Y-9257984D01*
X8941896Y-9257984D02*
X8970467Y-9267508D01*
X8970467Y-9267508D02*
X8989515Y-9286555D01*
X8989515Y-9286555D02*
X8999039Y-9305603D01*
X8999039Y-9305603D02*
X9008563Y-9343698D01*
X9008563Y-9343698D02*
X9008563Y-9372270D01*
X9008563Y-9372270D02*
X8999039Y-9410365D01*
X8999039Y-9410365D02*
X8989515Y-9429412D01*
X8989515Y-9429412D02*
X8970467Y-9448460D01*
X8970467Y-9448460D02*
X8941896Y-9457984D01*
X8941896Y-9457984D02*
X8894277Y-9457984D01*
X9094277Y-9457984D02*
X9094277Y-9324650D01*
X9094277Y-9362746D02*
X9103801Y-9343698D01*
X9103801Y-9343698D02*
X9113324Y-9334174D01*
X9113324Y-9334174D02*
X9132372Y-9324650D01*
X9132372Y-9324650D02*
X9151420Y-9324650D01*
X9218086Y-9457984D02*
X9218086Y-9324650D01*
X9218086Y-9257984D02*
X9208563Y-9267508D01*
X9208563Y-9267508D02*
X9218086Y-9277031D01*
X9218086Y-9277031D02*
X9227610Y-9267508D01*
X9227610Y-9267508D02*
X9218086Y-9257984D01*
X9218086Y-9257984D02*
X9218086Y-9277031D01*
X9341896Y-9457984D02*
X9322848Y-9448460D01*
X9322848Y-9448460D02*
X9313324Y-9429412D01*
X9313324Y-9429412D02*
X9313324Y-9257984D01*
X9446658Y-9457984D02*
X9427610Y-9448460D01*
X9427610Y-9448460D02*
X9418086Y-9429412D01*
X9418086Y-9429412D02*
X9418086Y-9257984D01*
X9675229Y-9457984D02*
X9675229Y-9257984D01*
X9675229Y-9257984D02*
X9741896Y-9400841D01*
X9741896Y-9400841D02*
X9808563Y-9257984D01*
X9808563Y-9257984D02*
X9808563Y-9457984D01*
X9989515Y-9457984D02*
X9989515Y-9353222D01*
X9989515Y-9353222D02*
X9979991Y-9334174D01*
X9979991Y-9334174D02*
X9960944Y-9324650D01*
X9960944Y-9324650D02*
X9922848Y-9324650D01*
X9922848Y-9324650D02*
X9903801Y-9334174D01*
X9989515Y-9448460D02*
X9970467Y-9457984D01*
X9970467Y-9457984D02*
X9922848Y-9457984D01*
X9922848Y-9457984D02*
X9903801Y-9448460D01*
X9903801Y-9448460D02*
X9894277Y-9429412D01*
X9894277Y-9429412D02*
X9894277Y-9410365D01*
X9894277Y-9410365D02*
X9903801Y-9391317D01*
X9903801Y-9391317D02*
X9922848Y-9381793D01*
X9922848Y-9381793D02*
X9970467Y-9381793D01*
X9970467Y-9381793D02*
X9989515Y-9372270D01*
X10084753Y-9324650D02*
X10084753Y-9524650D01*
X10084753Y-9334174D02*
X10103801Y-9324650D01*
X10103801Y-9324650D02*
X10141896Y-9324650D01*
X10141896Y-9324650D02*
X10160944Y-9334174D01*
X10160944Y-9334174D02*
X10170467Y-9343698D01*
X10170467Y-9343698D02*
X10179991Y-9362746D01*
X10179991Y-9362746D02*
X10179991Y-9419889D01*
X10179991Y-9419889D02*
X10170467Y-9438936D01*
X10170467Y-9438936D02*
X10160944Y-9448460D01*
X10160944Y-9448460D02*
X10141896Y-9457984D01*
X10141896Y-9457984D02*
X10103801Y-9457984D01*
X10103801Y-9457984D02*
X10084753Y-9448460D01*
X10265705Y-9438936D02*
X10275229Y-9448460D01*
X10275229Y-9448460D02*
X10265705Y-9457984D01*
X10265705Y-9457984D02*
X10256182Y-9448460D01*
X10256182Y-9448460D02*
X10265705Y-9438936D01*
X10265705Y-9438936D02*
X10265705Y-9457984D01*
X10265705Y-9334174D02*
X10275229Y-9343698D01*
X10275229Y-9343698D02*
X10265705Y-9353222D01*
X10265705Y-9353222D02*
X10256182Y-9343698D01*
X10256182Y-9343698D02*
X10265705Y-9334174D01*
X10265705Y-9334174D02*
X10265705Y-9353222D01*
D12*
X8603500Y-9771500D02*
X8633500Y-9801500D01*
X8633500Y-9771500D02*
X8603500Y-9801500D01*
D11*
X8932372Y-9677984D02*
X8951420Y-9677984D01*
X8951420Y-9677984D02*
X8970467Y-9687508D01*
X8970467Y-9687508D02*
X8979991Y-9697031D01*
X8979991Y-9697031D02*
X8989515Y-9716079D01*
X8989515Y-9716079D02*
X8999039Y-9754174D01*
X8999039Y-9754174D02*
X8999039Y-9801793D01*
X8999039Y-9801793D02*
X8989515Y-9839889D01*
X8989515Y-9839889D02*
X8979991Y-9858936D01*
X8979991Y-9858936D02*
X8970467Y-9868460D01*
X8970467Y-9868460D02*
X8951420Y-9877984D01*
X8951420Y-9877984D02*
X8932372Y-9877984D01*
X8932372Y-9877984D02*
X8913324Y-9868460D01*
X8913324Y-9868460D02*
X8903801Y-9858936D01*
X8903801Y-9858936D02*
X8894277Y-9839889D01*
X8894277Y-9839889D02*
X8884753Y-9801793D01*
X8884753Y-9801793D02*
X8884753Y-9754174D01*
X8884753Y-9754174D02*
X8894277Y-9716079D01*
X8894277Y-9716079D02*
X8903801Y-9697031D01*
X8903801Y-9697031D02*
X8913324Y-9687508D01*
X8913324Y-9687508D02*
X8932372Y-9677984D01*
X9084753Y-9858936D02*
X9094277Y-9868460D01*
X9094277Y-9868460D02*
X9084753Y-9877984D01*
X9084753Y-9877984D02*
X9075229Y-9868460D01*
X9075229Y-9868460D02*
X9084753Y-9858936D01*
X9084753Y-9858936D02*
X9084753Y-9877984D01*
X9160944Y-9677984D02*
X9284753Y-9677984D01*
X9284753Y-9677984D02*
X9218086Y-9754174D01*
X9218086Y-9754174D02*
X9246658Y-9754174D01*
X9246658Y-9754174D02*
X9265705Y-9763698D01*
X9265705Y-9763698D02*
X9275229Y-9773222D01*
X9275229Y-9773222D02*
X9284753Y-9792270D01*
X9284753Y-9792270D02*
X9284753Y-9839889D01*
X9284753Y-9839889D02*
X9275229Y-9858936D01*
X9275229Y-9858936D02*
X9265705Y-9868460D01*
X9265705Y-9868460D02*
X9246658Y-9877984D01*
X9246658Y-9877984D02*
X9189515Y-9877984D01*
X9189515Y-9877984D02*
X9170467Y-9868460D01*
X9170467Y-9868460D02*
X9160944Y-9858936D01*
X9408563Y-9677984D02*
X9427610Y-9677984D01*
X9427610Y-9677984D02*
X9446658Y-9687508D01*
X9446658Y-9687508D02*
X9456182Y-9697031D01*
X9456182Y-9697031D02*
X9465705Y-9716079D01*
X9465705Y-9716079D02*
X9475229Y-9754174D01*
X9475229Y-9754174D02*
X9475229Y-9801793D01*
X9475229Y-9801793D02*
X9465705Y-9839889D01*
X9465705Y-9839889D02*
X9456182Y-9858936D01*
X9456182Y-9858936D02*
X9446658Y-9868460D01*
X9446658Y-9868460D02*
X9427610Y-9877984D01*
X9427610Y-9877984D02*
X9408563Y-9877984D01*
X9408563Y-9877984D02*
X9389515Y-9868460D01*
X9389515Y-9868460D02*
X9379991Y-9858936D01*
X9379991Y-9858936D02*
X9370467Y-9839889D01*
X9370467Y-9839889D02*
X9360944Y-9801793D01*
X9360944Y-9801793D02*
X9360944Y-9754174D01*
X9360944Y-9754174D02*
X9370467Y-9716079D01*
X9370467Y-9716079D02*
X9379991Y-9697031D01*
X9379991Y-9697031D02*
X9389515Y-9687508D01*
X9389515Y-9687508D02*
X9408563Y-9677984D01*
X9599039Y-9677984D02*
X9618086Y-9677984D01*
X9618086Y-9677984D02*
X9637134Y-9687508D01*
X9637134Y-9687508D02*
X9646658Y-9697031D01*
X9646658Y-9697031D02*
X9656182Y-9716079D01*
X9656182Y-9716079D02*
X9665705Y-9754174D01*
X9665705Y-9754174D02*
X9665705Y-9801793D01*
X9665705Y-9801793D02*
X9656182Y-9839889D01*
X9656182Y-9839889D02*
X9646658Y-9858936D01*
X9646658Y-9858936D02*
X9637134Y-9868460D01*
X9637134Y-9868460D02*
X9618086Y-9877984D01*
X9618086Y-9877984D02*
X9599039Y-9877984D01*
X9599039Y-9877984D02*
X9579991Y-9868460D01*
X9579991Y-9868460D02*
X9570467Y-9858936D01*
X9570467Y-9858936D02*
X9560944Y-9839889D01*
X9560944Y-9839889D02*
X9551420Y-9801793D01*
X9551420Y-9801793D02*
X9551420Y-9754174D01*
X9551420Y-9754174D02*
X9560944Y-9716079D01*
X9560944Y-9716079D02*
X9570467Y-9697031D01*
X9570467Y-9697031D02*
X9579991Y-9687508D01*
X9579991Y-9687508D02*
X9599039Y-9677984D01*
X9751420Y-9877984D02*
X9751420Y-9744650D01*
X9751420Y-9763698D02*
X9760944Y-9754174D01*
X9760944Y-9754174D02*
X9779991Y-9744650D01*
X9779991Y-9744650D02*
X9808563Y-9744650D01*
X9808563Y-9744650D02*
X9827610Y-9754174D01*
X9827610Y-9754174D02*
X9837134Y-9773222D01*
X9837134Y-9773222D02*
X9837134Y-9877984D01*
X9837134Y-9773222D02*
X9846658Y-9754174D01*
X9846658Y-9754174D02*
X9865705Y-9744650D01*
X9865705Y-9744650D02*
X9894277Y-9744650D01*
X9894277Y-9744650D02*
X9913325Y-9754174D01*
X9913325Y-9754174D02*
X9922848Y-9773222D01*
X9922848Y-9773222D02*
X9922848Y-9877984D01*
X10018086Y-9877984D02*
X10018086Y-9744650D01*
X10018086Y-9763698D02*
X10027610Y-9754174D01*
X10027610Y-9754174D02*
X10046658Y-9744650D01*
X10046658Y-9744650D02*
X10075229Y-9744650D01*
X10075229Y-9744650D02*
X10094277Y-9754174D01*
X10094277Y-9754174D02*
X10103801Y-9773222D01*
X10103801Y-9773222D02*
X10103801Y-9877984D01*
X10103801Y-9773222D02*
X10113325Y-9754174D01*
X10113325Y-9754174D02*
X10132372Y-9744650D01*
X10132372Y-9744650D02*
X10160944Y-9744650D01*
X10160944Y-9744650D02*
X10179991Y-9754174D01*
X10179991Y-9754174D02*
X10189515Y-9773222D01*
X10189515Y-9773222D02*
X10189515Y-9877984D01*
X10579991Y-9668460D02*
X10408563Y-9925603D01*
X10837134Y-9677984D02*
X10856182Y-9677984D01*
X10856182Y-9677984D02*
X10875229Y-9687508D01*
X10875229Y-9687508D02*
X10884753Y-9697031D01*
X10884753Y-9697031D02*
X10894277Y-9716079D01*
X10894277Y-9716079D02*
X10903801Y-9754174D01*
X10903801Y-9754174D02*
X10903801Y-9801793D01*
X10903801Y-9801793D02*
X10894277Y-9839889D01*
X10894277Y-9839889D02*
X10884753Y-9858936D01*
X10884753Y-9858936D02*
X10875229Y-9868460D01*
X10875229Y-9868460D02*
X10856182Y-9877984D01*
X10856182Y-9877984D02*
X10837134Y-9877984D01*
X10837134Y-9877984D02*
X10818087Y-9868460D01*
X10818087Y-9868460D02*
X10808563Y-9858936D01*
X10808563Y-9858936D02*
X10799039Y-9839889D01*
X10799039Y-9839889D02*
X10789515Y-9801793D01*
X10789515Y-9801793D02*
X10789515Y-9754174D01*
X10789515Y-9754174D02*
X10799039Y-9716079D01*
X10799039Y-9716079D02*
X10808563Y-9697031D01*
X10808563Y-9697031D02*
X10818087Y-9687508D01*
X10818087Y-9687508D02*
X10837134Y-9677984D01*
X10989515Y-9858936D02*
X10999039Y-9868460D01*
X10999039Y-9868460D02*
X10989515Y-9877984D01*
X10989515Y-9877984D02*
X10979991Y-9868460D01*
X10979991Y-9868460D02*
X10989515Y-9858936D01*
X10989515Y-9858936D02*
X10989515Y-9877984D01*
X11122848Y-9677984D02*
X11141896Y-9677984D01*
X11141896Y-9677984D02*
X11160944Y-9687508D01*
X11160944Y-9687508D02*
X11170468Y-9697031D01*
X11170468Y-9697031D02*
X11179991Y-9716079D01*
X11179991Y-9716079D02*
X11189515Y-9754174D01*
X11189515Y-9754174D02*
X11189515Y-9801793D01*
X11189515Y-9801793D02*
X11179991Y-9839889D01*
X11179991Y-9839889D02*
X11170468Y-9858936D01*
X11170468Y-9858936D02*
X11160944Y-9868460D01*
X11160944Y-9868460D02*
X11141896Y-9877984D01*
X11141896Y-9877984D02*
X11122848Y-9877984D01*
X11122848Y-9877984D02*
X11103801Y-9868460D01*
X11103801Y-9868460D02*
X11094277Y-9858936D01*
X11094277Y-9858936D02*
X11084753Y-9839889D01*
X11084753Y-9839889D02*
X11075229Y-9801793D01*
X11075229Y-9801793D02*
X11075229Y-9754174D01*
X11075229Y-9754174D02*
X11084753Y-9716079D01*
X11084753Y-9716079D02*
X11094277Y-9697031D01*
X11094277Y-9697031D02*
X11103801Y-9687508D01*
X11103801Y-9687508D02*
X11122848Y-9677984D01*
X11379991Y-9877984D02*
X11265706Y-9877984D01*
X11322848Y-9877984D02*
X11322848Y-9677984D01*
X11322848Y-9677984D02*
X11303801Y-9706555D01*
X11303801Y-9706555D02*
X11284753Y-9725603D01*
X11284753Y-9725603D02*
X11265706Y-9735127D01*
X11570467Y-9877984D02*
X11456182Y-9877984D01*
X11513325Y-9877984D02*
X11513325Y-9677984D01*
X11513325Y-9677984D02*
X11494277Y-9706555D01*
X11494277Y-9706555D02*
X11475229Y-9725603D01*
X11475229Y-9725603D02*
X11456182Y-9735127D01*
X11684753Y-9763698D02*
X11665706Y-9754174D01*
X11665706Y-9754174D02*
X11656182Y-9744650D01*
X11656182Y-9744650D02*
X11646658Y-9725603D01*
X11646658Y-9725603D02*
X11646658Y-9716079D01*
X11646658Y-9716079D02*
X11656182Y-9697031D01*
X11656182Y-9697031D02*
X11665706Y-9687508D01*
X11665706Y-9687508D02*
X11684753Y-9677984D01*
X11684753Y-9677984D02*
X11722848Y-9677984D01*
X11722848Y-9677984D02*
X11741896Y-9687508D01*
X11741896Y-9687508D02*
X11751420Y-9697031D01*
X11751420Y-9697031D02*
X11760944Y-9716079D01*
X11760944Y-9716079D02*
X11760944Y-9725603D01*
X11760944Y-9725603D02*
X11751420Y-9744650D01*
X11751420Y-9744650D02*
X11741896Y-9754174D01*
X11741896Y-9754174D02*
X11722848Y-9763698D01*
X11722848Y-9763698D02*
X11684753Y-9763698D01*
X11684753Y-9763698D02*
X11665706Y-9773222D01*
X11665706Y-9773222D02*
X11656182Y-9782746D01*
X11656182Y-9782746D02*
X11646658Y-9801793D01*
X11646658Y-9801793D02*
X11646658Y-9839889D01*
X11646658Y-9839889D02*
X11656182Y-9858936D01*
X11656182Y-9858936D02*
X11665706Y-9868460D01*
X11665706Y-9868460D02*
X11684753Y-9877984D01*
X11684753Y-9877984D02*
X11722848Y-9877984D01*
X11722848Y-9877984D02*
X11741896Y-9868460D01*
X11741896Y-9868460D02*
X11751420Y-9858936D01*
X11751420Y-9858936D02*
X11760944Y-9839889D01*
X11760944Y-9839889D02*
X11760944Y-9801793D01*
X11760944Y-9801793D02*
X11751420Y-9782746D01*
X11751420Y-9782746D02*
X11741896Y-9773222D01*
X11741896Y-9773222D02*
X11722848Y-9763698D01*
X11837134Y-9677984D02*
X11837134Y-9716079D01*
X11913325Y-9677984D02*
X11913325Y-9716079D01*
X12208563Y-9954174D02*
X12199039Y-9944650D01*
X12199039Y-9944650D02*
X12179991Y-9916079D01*
X12179991Y-9916079D02*
X12170468Y-9897031D01*
X12170468Y-9897031D02*
X12160944Y-9868460D01*
X12160944Y-9868460D02*
X12151420Y-9820841D01*
X12151420Y-9820841D02*
X12151420Y-9782746D01*
X12151420Y-9782746D02*
X12160944Y-9735127D01*
X12160944Y-9735127D02*
X12170468Y-9706555D01*
X12170468Y-9706555D02*
X12179991Y-9687508D01*
X12179991Y-9687508D02*
X12199039Y-9658936D01*
X12199039Y-9658936D02*
X12208563Y-9649412D01*
X12389515Y-9877984D02*
X12275229Y-9877984D01*
X12332372Y-9877984D02*
X12332372Y-9677984D01*
X12332372Y-9677984D02*
X12313325Y-9706555D01*
X12313325Y-9706555D02*
X12294277Y-9725603D01*
X12294277Y-9725603D02*
X12275229Y-9735127D01*
X12456182Y-9677984D02*
X12589515Y-9677984D01*
X12589515Y-9677984D02*
X12503801Y-9877984D01*
X12818087Y-9877984D02*
X12818087Y-9677984D01*
X12903801Y-9877984D02*
X12903801Y-9773222D01*
X12903801Y-9773222D02*
X12894277Y-9754174D01*
X12894277Y-9754174D02*
X12875230Y-9744650D01*
X12875230Y-9744650D02*
X12846658Y-9744650D01*
X12846658Y-9744650D02*
X12827610Y-9754174D01*
X12827610Y-9754174D02*
X12818087Y-9763698D01*
X13027610Y-9877984D02*
X13008563Y-9868460D01*
X13008563Y-9868460D02*
X12999039Y-9858936D01*
X12999039Y-9858936D02*
X12989515Y-9839889D01*
X12989515Y-9839889D02*
X12989515Y-9782746D01*
X12989515Y-9782746D02*
X12999039Y-9763698D01*
X12999039Y-9763698D02*
X13008563Y-9754174D01*
X13008563Y-9754174D02*
X13027610Y-9744650D01*
X13027610Y-9744650D02*
X13056182Y-9744650D01*
X13056182Y-9744650D02*
X13075230Y-9754174D01*
X13075230Y-9754174D02*
X13084753Y-9763698D01*
X13084753Y-9763698D02*
X13094277Y-9782746D01*
X13094277Y-9782746D02*
X13094277Y-9839889D01*
X13094277Y-9839889D02*
X13084753Y-9858936D01*
X13084753Y-9858936D02*
X13075230Y-9868460D01*
X13075230Y-9868460D02*
X13056182Y-9877984D01*
X13056182Y-9877984D02*
X13027610Y-9877984D01*
X13208563Y-9877984D02*
X13189515Y-9868460D01*
X13189515Y-9868460D02*
X13179991Y-9849412D01*
X13179991Y-9849412D02*
X13179991Y-9677984D01*
X13360944Y-9868460D02*
X13341896Y-9877984D01*
X13341896Y-9877984D02*
X13303801Y-9877984D01*
X13303801Y-9877984D02*
X13284753Y-9868460D01*
X13284753Y-9868460D02*
X13275230Y-9849412D01*
X13275230Y-9849412D02*
X13275230Y-9773222D01*
X13275230Y-9773222D02*
X13284753Y-9754174D01*
X13284753Y-9754174D02*
X13303801Y-9744650D01*
X13303801Y-9744650D02*
X13341896Y-9744650D01*
X13341896Y-9744650D02*
X13360944Y-9754174D01*
X13360944Y-9754174D02*
X13370468Y-9773222D01*
X13370468Y-9773222D02*
X13370468Y-9792270D01*
X13370468Y-9792270D02*
X13275230Y-9811317D01*
X13446658Y-9868460D02*
X13465706Y-9877984D01*
X13465706Y-9877984D02*
X13503801Y-9877984D01*
X13503801Y-9877984D02*
X13522849Y-9868460D01*
X13522849Y-9868460D02*
X13532372Y-9849412D01*
X13532372Y-9849412D02*
X13532372Y-9839889D01*
X13532372Y-9839889D02*
X13522849Y-9820841D01*
X13522849Y-9820841D02*
X13503801Y-9811317D01*
X13503801Y-9811317D02*
X13475230Y-9811317D01*
X13475230Y-9811317D02*
X13456182Y-9801793D01*
X13456182Y-9801793D02*
X13446658Y-9782746D01*
X13446658Y-9782746D02*
X13446658Y-9773222D01*
X13446658Y-9773222D02*
X13456182Y-9754174D01*
X13456182Y-9754174D02*
X13475230Y-9744650D01*
X13475230Y-9744650D02*
X13503801Y-9744650D01*
X13503801Y-9744650D02*
X13522849Y-9754174D01*
X13599039Y-9954174D02*
X13608563Y-9944650D01*
X13608563Y-9944650D02*
X13627611Y-9916079D01*
X13627611Y-9916079D02*
X13637134Y-9897031D01*
X13637134Y-9897031D02*
X13646658Y-9868460D01*
X13646658Y-9868460D02*
X13656182Y-9820841D01*
X13656182Y-9820841D02*
X13656182Y-9782746D01*
X13656182Y-9782746D02*
X13646658Y-9735127D01*
X13646658Y-9735127D02*
X13637134Y-9706555D01*
X13637134Y-9706555D02*
X13627611Y-9687508D01*
X13627611Y-9687508D02*
X13608563Y-9658936D01*
X13608563Y-9658936D02*
X13599039Y-9649412D01*
D12*
X8633500Y-10050500D02*
G75*
G02*
X8543500Y-10050500I-45000J0D01*
G01*
X8543500Y-10050500D02*
G75*
G02*
X8633500Y-10050500I45000J0D01*
G01*
D11*
X8932372Y-9941984D02*
X8951420Y-9941984D01*
X8951420Y-9941984D02*
X8970467Y-9951508D01*
X8970467Y-9951508D02*
X8979991Y-9961031D01*
X8979991Y-9961031D02*
X8989515Y-9980079D01*
X8989515Y-9980079D02*
X8999039Y-10018174D01*
X8999039Y-10018174D02*
X8999039Y-10065793D01*
X8999039Y-10065793D02*
X8989515Y-10103889D01*
X8989515Y-10103889D02*
X8979991Y-10122936D01*
X8979991Y-10122936D02*
X8970467Y-10132460D01*
X8970467Y-10132460D02*
X8951420Y-10141984D01*
X8951420Y-10141984D02*
X8932372Y-10141984D01*
X8932372Y-10141984D02*
X8913324Y-10132460D01*
X8913324Y-10132460D02*
X8903801Y-10122936D01*
X8903801Y-10122936D02*
X8894277Y-10103889D01*
X8894277Y-10103889D02*
X8884753Y-10065793D01*
X8884753Y-10065793D02*
X8884753Y-10018174D01*
X8884753Y-10018174D02*
X8894277Y-9980079D01*
X8894277Y-9980079D02*
X8903801Y-9961031D01*
X8903801Y-9961031D02*
X8913324Y-9951508D01*
X8913324Y-9951508D02*
X8932372Y-9941984D01*
X9084753Y-10122936D02*
X9094277Y-10132460D01*
X9094277Y-10132460D02*
X9084753Y-10141984D01*
X9084753Y-10141984D02*
X9075229Y-10132460D01*
X9075229Y-10132460D02*
X9084753Y-10122936D01*
X9084753Y-10122936D02*
X9084753Y-10141984D01*
X9189515Y-10141984D02*
X9227610Y-10141984D01*
X9227610Y-10141984D02*
X9246658Y-10132460D01*
X9246658Y-10132460D02*
X9256182Y-10122936D01*
X9256182Y-10122936D02*
X9275229Y-10094365D01*
X9275229Y-10094365D02*
X9284753Y-10056270D01*
X9284753Y-10056270D02*
X9284753Y-9980079D01*
X9284753Y-9980079D02*
X9275229Y-9961031D01*
X9275229Y-9961031D02*
X9265705Y-9951508D01*
X9265705Y-9951508D02*
X9246658Y-9941984D01*
X9246658Y-9941984D02*
X9208563Y-9941984D01*
X9208563Y-9941984D02*
X9189515Y-9951508D01*
X9189515Y-9951508D02*
X9179991Y-9961031D01*
X9179991Y-9961031D02*
X9170467Y-9980079D01*
X9170467Y-9980079D02*
X9170467Y-10027698D01*
X9170467Y-10027698D02*
X9179991Y-10046746D01*
X9179991Y-10046746D02*
X9189515Y-10056270D01*
X9189515Y-10056270D02*
X9208563Y-10065793D01*
X9208563Y-10065793D02*
X9246658Y-10065793D01*
X9246658Y-10065793D02*
X9265705Y-10056270D01*
X9265705Y-10056270D02*
X9275229Y-10046746D01*
X9275229Y-10046746D02*
X9284753Y-10027698D01*
X9408563Y-9941984D02*
X9427610Y-9941984D01*
X9427610Y-9941984D02*
X9446658Y-9951508D01*
X9446658Y-9951508D02*
X9456182Y-9961031D01*
X9456182Y-9961031D02*
X9465705Y-9980079D01*
X9465705Y-9980079D02*
X9475229Y-10018174D01*
X9475229Y-10018174D02*
X9475229Y-10065793D01*
X9475229Y-10065793D02*
X9465705Y-10103889D01*
X9465705Y-10103889D02*
X9456182Y-10122936D01*
X9456182Y-10122936D02*
X9446658Y-10132460D01*
X9446658Y-10132460D02*
X9427610Y-10141984D01*
X9427610Y-10141984D02*
X9408563Y-10141984D01*
X9408563Y-10141984D02*
X9389515Y-10132460D01*
X9389515Y-10132460D02*
X9379991Y-10122936D01*
X9379991Y-10122936D02*
X9370467Y-10103889D01*
X9370467Y-10103889D02*
X9360944Y-10065793D01*
X9360944Y-10065793D02*
X9360944Y-10018174D01*
X9360944Y-10018174D02*
X9370467Y-9980079D01*
X9370467Y-9980079D02*
X9379991Y-9961031D01*
X9379991Y-9961031D02*
X9389515Y-9951508D01*
X9389515Y-9951508D02*
X9408563Y-9941984D01*
X9599039Y-9941984D02*
X9618086Y-9941984D01*
X9618086Y-9941984D02*
X9637134Y-9951508D01*
X9637134Y-9951508D02*
X9646658Y-9961031D01*
X9646658Y-9961031D02*
X9656182Y-9980079D01*
X9656182Y-9980079D02*
X9665705Y-10018174D01*
X9665705Y-10018174D02*
X9665705Y-10065793D01*
X9665705Y-10065793D02*
X9656182Y-10103889D01*
X9656182Y-10103889D02*
X9646658Y-10122936D01*
X9646658Y-10122936D02*
X9637134Y-10132460D01*
X9637134Y-10132460D02*
X9618086Y-10141984D01*
X9618086Y-10141984D02*
X9599039Y-10141984D01*
X9599039Y-10141984D02*
X9579991Y-10132460D01*
X9579991Y-10132460D02*
X9570467Y-10122936D01*
X9570467Y-10122936D02*
X9560944Y-10103889D01*
X9560944Y-10103889D02*
X9551420Y-10065793D01*
X9551420Y-10065793D02*
X9551420Y-10018174D01*
X9551420Y-10018174D02*
X9560944Y-9980079D01*
X9560944Y-9980079D02*
X9570467Y-9961031D01*
X9570467Y-9961031D02*
X9579991Y-9951508D01*
X9579991Y-9951508D02*
X9599039Y-9941984D01*
X9751420Y-10141984D02*
X9751420Y-10008650D01*
X9751420Y-10027698D02*
X9760944Y-10018174D01*
X9760944Y-10018174D02*
X9779991Y-10008650D01*
X9779991Y-10008650D02*
X9808563Y-10008650D01*
X9808563Y-10008650D02*
X9827610Y-10018174D01*
X9827610Y-10018174D02*
X9837134Y-10037222D01*
X9837134Y-10037222D02*
X9837134Y-10141984D01*
X9837134Y-10037222D02*
X9846658Y-10018174D01*
X9846658Y-10018174D02*
X9865705Y-10008650D01*
X9865705Y-10008650D02*
X9894277Y-10008650D01*
X9894277Y-10008650D02*
X9913325Y-10018174D01*
X9913325Y-10018174D02*
X9922848Y-10037222D01*
X9922848Y-10037222D02*
X9922848Y-10141984D01*
X10018086Y-10141984D02*
X10018086Y-10008650D01*
X10018086Y-10027698D02*
X10027610Y-10018174D01*
X10027610Y-10018174D02*
X10046658Y-10008650D01*
X10046658Y-10008650D02*
X10075229Y-10008650D01*
X10075229Y-10008650D02*
X10094277Y-10018174D01*
X10094277Y-10018174D02*
X10103801Y-10037222D01*
X10103801Y-10037222D02*
X10103801Y-10141984D01*
X10103801Y-10037222D02*
X10113325Y-10018174D01*
X10113325Y-10018174D02*
X10132372Y-10008650D01*
X10132372Y-10008650D02*
X10160944Y-10008650D01*
X10160944Y-10008650D02*
X10179991Y-10018174D01*
X10179991Y-10018174D02*
X10189515Y-10037222D01*
X10189515Y-10037222D02*
X10189515Y-10141984D01*
X10579991Y-9932460D02*
X10408563Y-10189603D01*
X10837134Y-9941984D02*
X10856182Y-9941984D01*
X10856182Y-9941984D02*
X10875229Y-9951508D01*
X10875229Y-9951508D02*
X10884753Y-9961031D01*
X10884753Y-9961031D02*
X10894277Y-9980079D01*
X10894277Y-9980079D02*
X10903801Y-10018174D01*
X10903801Y-10018174D02*
X10903801Y-10065793D01*
X10903801Y-10065793D02*
X10894277Y-10103889D01*
X10894277Y-10103889D02*
X10884753Y-10122936D01*
X10884753Y-10122936D02*
X10875229Y-10132460D01*
X10875229Y-10132460D02*
X10856182Y-10141984D01*
X10856182Y-10141984D02*
X10837134Y-10141984D01*
X10837134Y-10141984D02*
X10818087Y-10132460D01*
X10818087Y-10132460D02*
X10808563Y-10122936D01*
X10808563Y-10122936D02*
X10799039Y-10103889D01*
X10799039Y-10103889D02*
X10789515Y-10065793D01*
X10789515Y-10065793D02*
X10789515Y-10018174D01*
X10789515Y-10018174D02*
X10799039Y-9980079D01*
X10799039Y-9980079D02*
X10808563Y-9961031D01*
X10808563Y-9961031D02*
X10818087Y-9951508D01*
X10818087Y-9951508D02*
X10837134Y-9941984D01*
X10989515Y-10122936D02*
X10999039Y-10132460D01*
X10999039Y-10132460D02*
X10989515Y-10141984D01*
X10989515Y-10141984D02*
X10979991Y-10132460D01*
X10979991Y-10132460D02*
X10989515Y-10122936D01*
X10989515Y-10122936D02*
X10989515Y-10141984D01*
X11122848Y-9941984D02*
X11141896Y-9941984D01*
X11141896Y-9941984D02*
X11160944Y-9951508D01*
X11160944Y-9951508D02*
X11170468Y-9961031D01*
X11170468Y-9961031D02*
X11179991Y-9980079D01*
X11179991Y-9980079D02*
X11189515Y-10018174D01*
X11189515Y-10018174D02*
X11189515Y-10065793D01*
X11189515Y-10065793D02*
X11179991Y-10103889D01*
X11179991Y-10103889D02*
X11170468Y-10122936D01*
X11170468Y-10122936D02*
X11160944Y-10132460D01*
X11160944Y-10132460D02*
X11141896Y-10141984D01*
X11141896Y-10141984D02*
X11122848Y-10141984D01*
X11122848Y-10141984D02*
X11103801Y-10132460D01*
X11103801Y-10132460D02*
X11094277Y-10122936D01*
X11094277Y-10122936D02*
X11084753Y-10103889D01*
X11084753Y-10103889D02*
X11075229Y-10065793D01*
X11075229Y-10065793D02*
X11075229Y-10018174D01*
X11075229Y-10018174D02*
X11084753Y-9980079D01*
X11084753Y-9980079D02*
X11094277Y-9961031D01*
X11094277Y-9961031D02*
X11103801Y-9951508D01*
X11103801Y-9951508D02*
X11122848Y-9941984D01*
X11256182Y-9941984D02*
X11379991Y-9941984D01*
X11379991Y-9941984D02*
X11313325Y-10018174D01*
X11313325Y-10018174D02*
X11341896Y-10018174D01*
X11341896Y-10018174D02*
X11360944Y-10027698D01*
X11360944Y-10027698D02*
X11370467Y-10037222D01*
X11370467Y-10037222D02*
X11379991Y-10056270D01*
X11379991Y-10056270D02*
X11379991Y-10103889D01*
X11379991Y-10103889D02*
X11370467Y-10122936D01*
X11370467Y-10122936D02*
X11360944Y-10132460D01*
X11360944Y-10132460D02*
X11341896Y-10141984D01*
X11341896Y-10141984D02*
X11284753Y-10141984D01*
X11284753Y-10141984D02*
X11265706Y-10132460D01*
X11265706Y-10132460D02*
X11256182Y-10122936D01*
X11560944Y-9941984D02*
X11465706Y-9941984D01*
X11465706Y-9941984D02*
X11456182Y-10037222D01*
X11456182Y-10037222D02*
X11465706Y-10027698D01*
X11465706Y-10027698D02*
X11484753Y-10018174D01*
X11484753Y-10018174D02*
X11532372Y-10018174D01*
X11532372Y-10018174D02*
X11551420Y-10027698D01*
X11551420Y-10027698D02*
X11560944Y-10037222D01*
X11560944Y-10037222D02*
X11570467Y-10056270D01*
X11570467Y-10056270D02*
X11570467Y-10103889D01*
X11570467Y-10103889D02*
X11560944Y-10122936D01*
X11560944Y-10122936D02*
X11551420Y-10132460D01*
X11551420Y-10132460D02*
X11532372Y-10141984D01*
X11532372Y-10141984D02*
X11484753Y-10141984D01*
X11484753Y-10141984D02*
X11465706Y-10132460D01*
X11465706Y-10132460D02*
X11456182Y-10122936D01*
X11741896Y-10008650D02*
X11741896Y-10141984D01*
X11694277Y-9932460D02*
X11646658Y-10075317D01*
X11646658Y-10075317D02*
X11770467Y-10075317D01*
X11837134Y-9941984D02*
X11837134Y-9980079D01*
X11913325Y-9941984D02*
X11913325Y-9980079D01*
X12208563Y-10218174D02*
X12199039Y-10208650D01*
X12199039Y-10208650D02*
X12179991Y-10180079D01*
X12179991Y-10180079D02*
X12170468Y-10161031D01*
X12170468Y-10161031D02*
X12160944Y-10132460D01*
X12160944Y-10132460D02*
X12151420Y-10084841D01*
X12151420Y-10084841D02*
X12151420Y-10046746D01*
X12151420Y-10046746D02*
X12160944Y-9999127D01*
X12160944Y-9999127D02*
X12170468Y-9970555D01*
X12170468Y-9970555D02*
X12179991Y-9951508D01*
X12179991Y-9951508D02*
X12199039Y-9922936D01*
X12199039Y-9922936D02*
X12208563Y-9913412D01*
X12370468Y-10008650D02*
X12370468Y-10141984D01*
X12322848Y-9932460D02*
X12275229Y-10075317D01*
X12275229Y-10075317D02*
X12399039Y-10075317D01*
X12627610Y-10141984D02*
X12627610Y-9941984D01*
X12713325Y-10141984D02*
X12713325Y-10037222D01*
X12713325Y-10037222D02*
X12703801Y-10018174D01*
X12703801Y-10018174D02*
X12684753Y-10008650D01*
X12684753Y-10008650D02*
X12656182Y-10008650D01*
X12656182Y-10008650D02*
X12637134Y-10018174D01*
X12637134Y-10018174D02*
X12627610Y-10027698D01*
X12837134Y-10141984D02*
X12818087Y-10132460D01*
X12818087Y-10132460D02*
X12808563Y-10122936D01*
X12808563Y-10122936D02*
X12799039Y-10103889D01*
X12799039Y-10103889D02*
X12799039Y-10046746D01*
X12799039Y-10046746D02*
X12808563Y-10027698D01*
X12808563Y-10027698D02*
X12818087Y-10018174D01*
X12818087Y-10018174D02*
X12837134Y-10008650D01*
X12837134Y-10008650D02*
X12865706Y-10008650D01*
X12865706Y-10008650D02*
X12884753Y-10018174D01*
X12884753Y-10018174D02*
X12894277Y-10027698D01*
X12894277Y-10027698D02*
X12903801Y-10046746D01*
X12903801Y-10046746D02*
X12903801Y-10103889D01*
X12903801Y-10103889D02*
X12894277Y-10122936D01*
X12894277Y-10122936D02*
X12884753Y-10132460D01*
X12884753Y-10132460D02*
X12865706Y-10141984D01*
X12865706Y-10141984D02*
X12837134Y-10141984D01*
X13018087Y-10141984D02*
X12999039Y-10132460D01*
X12999039Y-10132460D02*
X12989515Y-10113412D01*
X12989515Y-10113412D02*
X12989515Y-9941984D01*
X13170468Y-10132460D02*
X13151420Y-10141984D01*
X13151420Y-10141984D02*
X13113325Y-10141984D01*
X13113325Y-10141984D02*
X13094277Y-10132460D01*
X13094277Y-10132460D02*
X13084753Y-10113412D01*
X13084753Y-10113412D02*
X13084753Y-10037222D01*
X13084753Y-10037222D02*
X13094277Y-10018174D01*
X13094277Y-10018174D02*
X13113325Y-10008650D01*
X13113325Y-10008650D02*
X13151420Y-10008650D01*
X13151420Y-10008650D02*
X13170468Y-10018174D01*
X13170468Y-10018174D02*
X13179991Y-10037222D01*
X13179991Y-10037222D02*
X13179991Y-10056270D01*
X13179991Y-10056270D02*
X13084753Y-10075317D01*
X13256182Y-10132460D02*
X13275230Y-10141984D01*
X13275230Y-10141984D02*
X13313325Y-10141984D01*
X13313325Y-10141984D02*
X13332372Y-10132460D01*
X13332372Y-10132460D02*
X13341896Y-10113412D01*
X13341896Y-10113412D02*
X13341896Y-10103889D01*
X13341896Y-10103889D02*
X13332372Y-10084841D01*
X13332372Y-10084841D02*
X13313325Y-10075317D01*
X13313325Y-10075317D02*
X13284753Y-10075317D01*
X13284753Y-10075317D02*
X13265706Y-10065793D01*
X13265706Y-10065793D02*
X13256182Y-10046746D01*
X13256182Y-10046746D02*
X13256182Y-10037222D01*
X13256182Y-10037222D02*
X13265706Y-10018174D01*
X13265706Y-10018174D02*
X13284753Y-10008650D01*
X13284753Y-10008650D02*
X13313325Y-10008650D01*
X13313325Y-10008650D02*
X13332372Y-10018174D01*
X13408563Y-10218174D02*
X13418087Y-10208650D01*
X13418087Y-10208650D02*
X13437134Y-10180079D01*
X13437134Y-10180079D02*
X13446658Y-10161031D01*
X13446658Y-10161031D02*
X13456182Y-10132460D01*
X13456182Y-10132460D02*
X13465706Y-10084841D01*
X13465706Y-10084841D02*
X13465706Y-10046746D01*
X13465706Y-10046746D02*
X13456182Y-9999127D01*
X13456182Y-9999127D02*
X13446658Y-9970555D01*
X13446658Y-9970555D02*
X13437134Y-9951508D01*
X13437134Y-9951508D02*
X13418087Y-9922936D01*
X13418087Y-9922936D02*
X13408563Y-9913412D01*
D12*
X8583500Y-10264500D02*
X8583500Y-10364500D01*
X8533500Y-10314500D02*
X8633500Y-10314500D01*
D11*
X8999039Y-10405984D02*
X8884753Y-10405984D01*
X8941896Y-10405984D02*
X8941896Y-10205984D01*
X8941896Y-10205984D02*
X8922848Y-10234555D01*
X8922848Y-10234555D02*
X8903801Y-10253603D01*
X8903801Y-10253603D02*
X8884753Y-10263127D01*
X9084753Y-10386936D02*
X9094277Y-10396460D01*
X9094277Y-10396460D02*
X9084753Y-10405984D01*
X9084753Y-10405984D02*
X9075229Y-10396460D01*
X9075229Y-10396460D02*
X9084753Y-10386936D01*
X9084753Y-10386936D02*
X9084753Y-10405984D01*
X9218086Y-10205984D02*
X9237134Y-10205984D01*
X9237134Y-10205984D02*
X9256182Y-10215508D01*
X9256182Y-10215508D02*
X9265705Y-10225031D01*
X9265705Y-10225031D02*
X9275229Y-10244079D01*
X9275229Y-10244079D02*
X9284753Y-10282174D01*
X9284753Y-10282174D02*
X9284753Y-10329793D01*
X9284753Y-10329793D02*
X9275229Y-10367889D01*
X9275229Y-10367889D02*
X9265705Y-10386936D01*
X9265705Y-10386936D02*
X9256182Y-10396460D01*
X9256182Y-10396460D02*
X9237134Y-10405984D01*
X9237134Y-10405984D02*
X9218086Y-10405984D01*
X9218086Y-10405984D02*
X9199039Y-10396460D01*
X9199039Y-10396460D02*
X9189515Y-10386936D01*
X9189515Y-10386936D02*
X9179991Y-10367889D01*
X9179991Y-10367889D02*
X9170467Y-10329793D01*
X9170467Y-10329793D02*
X9170467Y-10282174D01*
X9170467Y-10282174D02*
X9179991Y-10244079D01*
X9179991Y-10244079D02*
X9189515Y-10225031D01*
X9189515Y-10225031D02*
X9199039Y-10215508D01*
X9199039Y-10215508D02*
X9218086Y-10205984D01*
X9408563Y-10205984D02*
X9427610Y-10205984D01*
X9427610Y-10205984D02*
X9446658Y-10215508D01*
X9446658Y-10215508D02*
X9456182Y-10225031D01*
X9456182Y-10225031D02*
X9465705Y-10244079D01*
X9465705Y-10244079D02*
X9475229Y-10282174D01*
X9475229Y-10282174D02*
X9475229Y-10329793D01*
X9475229Y-10329793D02*
X9465705Y-10367889D01*
X9465705Y-10367889D02*
X9456182Y-10386936D01*
X9456182Y-10386936D02*
X9446658Y-10396460D01*
X9446658Y-10396460D02*
X9427610Y-10405984D01*
X9427610Y-10405984D02*
X9408563Y-10405984D01*
X9408563Y-10405984D02*
X9389515Y-10396460D01*
X9389515Y-10396460D02*
X9379991Y-10386936D01*
X9379991Y-10386936D02*
X9370467Y-10367889D01*
X9370467Y-10367889D02*
X9360944Y-10329793D01*
X9360944Y-10329793D02*
X9360944Y-10282174D01*
X9360944Y-10282174D02*
X9370467Y-10244079D01*
X9370467Y-10244079D02*
X9379991Y-10225031D01*
X9379991Y-10225031D02*
X9389515Y-10215508D01*
X9389515Y-10215508D02*
X9408563Y-10205984D01*
X9599039Y-10205984D02*
X9618086Y-10205984D01*
X9618086Y-10205984D02*
X9637134Y-10215508D01*
X9637134Y-10215508D02*
X9646658Y-10225031D01*
X9646658Y-10225031D02*
X9656182Y-10244079D01*
X9656182Y-10244079D02*
X9665705Y-10282174D01*
X9665705Y-10282174D02*
X9665705Y-10329793D01*
X9665705Y-10329793D02*
X9656182Y-10367889D01*
X9656182Y-10367889D02*
X9646658Y-10386936D01*
X9646658Y-10386936D02*
X9637134Y-10396460D01*
X9637134Y-10396460D02*
X9618086Y-10405984D01*
X9618086Y-10405984D02*
X9599039Y-10405984D01*
X9599039Y-10405984D02*
X9579991Y-10396460D01*
X9579991Y-10396460D02*
X9570467Y-10386936D01*
X9570467Y-10386936D02*
X9560944Y-10367889D01*
X9560944Y-10367889D02*
X9551420Y-10329793D01*
X9551420Y-10329793D02*
X9551420Y-10282174D01*
X9551420Y-10282174D02*
X9560944Y-10244079D01*
X9560944Y-10244079D02*
X9570467Y-10225031D01*
X9570467Y-10225031D02*
X9579991Y-10215508D01*
X9579991Y-10215508D02*
X9599039Y-10205984D01*
X9751420Y-10405984D02*
X9751420Y-10272650D01*
X9751420Y-10291698D02*
X9760944Y-10282174D01*
X9760944Y-10282174D02*
X9779991Y-10272650D01*
X9779991Y-10272650D02*
X9808563Y-10272650D01*
X9808563Y-10272650D02*
X9827610Y-10282174D01*
X9827610Y-10282174D02*
X9837134Y-10301222D01*
X9837134Y-10301222D02*
X9837134Y-10405984D01*
X9837134Y-10301222D02*
X9846658Y-10282174D01*
X9846658Y-10282174D02*
X9865705Y-10272650D01*
X9865705Y-10272650D02*
X9894277Y-10272650D01*
X9894277Y-10272650D02*
X9913325Y-10282174D01*
X9913325Y-10282174D02*
X9922848Y-10301222D01*
X9922848Y-10301222D02*
X9922848Y-10405984D01*
X10018086Y-10405984D02*
X10018086Y-10272650D01*
X10018086Y-10291698D02*
X10027610Y-10282174D01*
X10027610Y-10282174D02*
X10046658Y-10272650D01*
X10046658Y-10272650D02*
X10075229Y-10272650D01*
X10075229Y-10272650D02*
X10094277Y-10282174D01*
X10094277Y-10282174D02*
X10103801Y-10301222D01*
X10103801Y-10301222D02*
X10103801Y-10405984D01*
X10103801Y-10301222D02*
X10113325Y-10282174D01*
X10113325Y-10282174D02*
X10132372Y-10272650D01*
X10132372Y-10272650D02*
X10160944Y-10272650D01*
X10160944Y-10272650D02*
X10179991Y-10282174D01*
X10179991Y-10282174D02*
X10189515Y-10301222D01*
X10189515Y-10301222D02*
X10189515Y-10405984D01*
X10579991Y-10196460D02*
X10408563Y-10453603D01*
X10837134Y-10205984D02*
X10856182Y-10205984D01*
X10856182Y-10205984D02*
X10875229Y-10215508D01*
X10875229Y-10215508D02*
X10884753Y-10225031D01*
X10884753Y-10225031D02*
X10894277Y-10244079D01*
X10894277Y-10244079D02*
X10903801Y-10282174D01*
X10903801Y-10282174D02*
X10903801Y-10329793D01*
X10903801Y-10329793D02*
X10894277Y-10367889D01*
X10894277Y-10367889D02*
X10884753Y-10386936D01*
X10884753Y-10386936D02*
X10875229Y-10396460D01*
X10875229Y-10396460D02*
X10856182Y-10405984D01*
X10856182Y-10405984D02*
X10837134Y-10405984D01*
X10837134Y-10405984D02*
X10818087Y-10396460D01*
X10818087Y-10396460D02*
X10808563Y-10386936D01*
X10808563Y-10386936D02*
X10799039Y-10367889D01*
X10799039Y-10367889D02*
X10789515Y-10329793D01*
X10789515Y-10329793D02*
X10789515Y-10282174D01*
X10789515Y-10282174D02*
X10799039Y-10244079D01*
X10799039Y-10244079D02*
X10808563Y-10225031D01*
X10808563Y-10225031D02*
X10818087Y-10215508D01*
X10818087Y-10215508D02*
X10837134Y-10205984D01*
X10989515Y-10386936D02*
X10999039Y-10396460D01*
X10999039Y-10396460D02*
X10989515Y-10405984D01*
X10989515Y-10405984D02*
X10979991Y-10396460D01*
X10979991Y-10396460D02*
X10989515Y-10386936D01*
X10989515Y-10386936D02*
X10989515Y-10405984D01*
X11122848Y-10205984D02*
X11141896Y-10205984D01*
X11141896Y-10205984D02*
X11160944Y-10215508D01*
X11160944Y-10215508D02*
X11170468Y-10225031D01*
X11170468Y-10225031D02*
X11179991Y-10244079D01*
X11179991Y-10244079D02*
X11189515Y-10282174D01*
X11189515Y-10282174D02*
X11189515Y-10329793D01*
X11189515Y-10329793D02*
X11179991Y-10367889D01*
X11179991Y-10367889D02*
X11170468Y-10386936D01*
X11170468Y-10386936D02*
X11160944Y-10396460D01*
X11160944Y-10396460D02*
X11141896Y-10405984D01*
X11141896Y-10405984D02*
X11122848Y-10405984D01*
X11122848Y-10405984D02*
X11103801Y-10396460D01*
X11103801Y-10396460D02*
X11094277Y-10386936D01*
X11094277Y-10386936D02*
X11084753Y-10367889D01*
X11084753Y-10367889D02*
X11075229Y-10329793D01*
X11075229Y-10329793D02*
X11075229Y-10282174D01*
X11075229Y-10282174D02*
X11084753Y-10244079D01*
X11084753Y-10244079D02*
X11094277Y-10225031D01*
X11094277Y-10225031D02*
X11103801Y-10215508D01*
X11103801Y-10215508D02*
X11122848Y-10205984D01*
X11256182Y-10205984D02*
X11379991Y-10205984D01*
X11379991Y-10205984D02*
X11313325Y-10282174D01*
X11313325Y-10282174D02*
X11341896Y-10282174D01*
X11341896Y-10282174D02*
X11360944Y-10291698D01*
X11360944Y-10291698D02*
X11370467Y-10301222D01*
X11370467Y-10301222D02*
X11379991Y-10320270D01*
X11379991Y-10320270D02*
X11379991Y-10367889D01*
X11379991Y-10367889D02*
X11370467Y-10386936D01*
X11370467Y-10386936D02*
X11360944Y-10396460D01*
X11360944Y-10396460D02*
X11341896Y-10405984D01*
X11341896Y-10405984D02*
X11284753Y-10405984D01*
X11284753Y-10405984D02*
X11265706Y-10396460D01*
X11265706Y-10396460D02*
X11256182Y-10386936D01*
X11475229Y-10405984D02*
X11513325Y-10405984D01*
X11513325Y-10405984D02*
X11532372Y-10396460D01*
X11532372Y-10396460D02*
X11541896Y-10386936D01*
X11541896Y-10386936D02*
X11560944Y-10358365D01*
X11560944Y-10358365D02*
X11570467Y-10320270D01*
X11570467Y-10320270D02*
X11570467Y-10244079D01*
X11570467Y-10244079D02*
X11560944Y-10225031D01*
X11560944Y-10225031D02*
X11551420Y-10215508D01*
X11551420Y-10215508D02*
X11532372Y-10205984D01*
X11532372Y-10205984D02*
X11494277Y-10205984D01*
X11494277Y-10205984D02*
X11475229Y-10215508D01*
X11475229Y-10215508D02*
X11465706Y-10225031D01*
X11465706Y-10225031D02*
X11456182Y-10244079D01*
X11456182Y-10244079D02*
X11456182Y-10291698D01*
X11456182Y-10291698D02*
X11465706Y-10310746D01*
X11465706Y-10310746D02*
X11475229Y-10320270D01*
X11475229Y-10320270D02*
X11494277Y-10329793D01*
X11494277Y-10329793D02*
X11532372Y-10329793D01*
X11532372Y-10329793D02*
X11551420Y-10320270D01*
X11551420Y-10320270D02*
X11560944Y-10310746D01*
X11560944Y-10310746D02*
X11570467Y-10291698D01*
X11741896Y-10272650D02*
X11741896Y-10405984D01*
X11694277Y-10196460D02*
X11646658Y-10339317D01*
X11646658Y-10339317D02*
X11770467Y-10339317D01*
X11837134Y-10205984D02*
X11837134Y-10244079D01*
X11913325Y-10205984D02*
X11913325Y-10244079D01*
X12208563Y-10482174D02*
X12199039Y-10472650D01*
X12199039Y-10472650D02*
X12179991Y-10444079D01*
X12179991Y-10444079D02*
X12170468Y-10425031D01*
X12170468Y-10425031D02*
X12160944Y-10396460D01*
X12160944Y-10396460D02*
X12151420Y-10348841D01*
X12151420Y-10348841D02*
X12151420Y-10310746D01*
X12151420Y-10310746D02*
X12160944Y-10263127D01*
X12160944Y-10263127D02*
X12170468Y-10234555D01*
X12170468Y-10234555D02*
X12179991Y-10215508D01*
X12179991Y-10215508D02*
X12199039Y-10186936D01*
X12199039Y-10186936D02*
X12208563Y-10177412D01*
X12389515Y-10405984D02*
X12275229Y-10405984D01*
X12332372Y-10405984D02*
X12332372Y-10205984D01*
X12332372Y-10205984D02*
X12313325Y-10234555D01*
X12313325Y-10234555D02*
X12294277Y-10253603D01*
X12294277Y-10253603D02*
X12275229Y-10263127D01*
X12484753Y-10405984D02*
X12522848Y-10405984D01*
X12522848Y-10405984D02*
X12541896Y-10396460D01*
X12541896Y-10396460D02*
X12551420Y-10386936D01*
X12551420Y-10386936D02*
X12570468Y-10358365D01*
X12570468Y-10358365D02*
X12579991Y-10320270D01*
X12579991Y-10320270D02*
X12579991Y-10244079D01*
X12579991Y-10244079D02*
X12570468Y-10225031D01*
X12570468Y-10225031D02*
X12560944Y-10215508D01*
X12560944Y-10215508D02*
X12541896Y-10205984D01*
X12541896Y-10205984D02*
X12503801Y-10205984D01*
X12503801Y-10205984D02*
X12484753Y-10215508D01*
X12484753Y-10215508D02*
X12475229Y-10225031D01*
X12475229Y-10225031D02*
X12465706Y-10244079D01*
X12465706Y-10244079D02*
X12465706Y-10291698D01*
X12465706Y-10291698D02*
X12475229Y-10310746D01*
X12475229Y-10310746D02*
X12484753Y-10320270D01*
X12484753Y-10320270D02*
X12503801Y-10329793D01*
X12503801Y-10329793D02*
X12541896Y-10329793D01*
X12541896Y-10329793D02*
X12560944Y-10320270D01*
X12560944Y-10320270D02*
X12570468Y-10310746D01*
X12570468Y-10310746D02*
X12579991Y-10291698D01*
X12818087Y-10405984D02*
X12818087Y-10205984D01*
X12903801Y-10405984D02*
X12903801Y-10301222D01*
X12903801Y-10301222D02*
X12894277Y-10282174D01*
X12894277Y-10282174D02*
X12875230Y-10272650D01*
X12875230Y-10272650D02*
X12846658Y-10272650D01*
X12846658Y-10272650D02*
X12827610Y-10282174D01*
X12827610Y-10282174D02*
X12818087Y-10291698D01*
X13027610Y-10405984D02*
X13008563Y-10396460D01*
X13008563Y-10396460D02*
X12999039Y-10386936D01*
X12999039Y-10386936D02*
X12989515Y-10367889D01*
X12989515Y-10367889D02*
X12989515Y-10310746D01*
X12989515Y-10310746D02*
X12999039Y-10291698D01*
X12999039Y-10291698D02*
X13008563Y-10282174D01*
X13008563Y-10282174D02*
X13027610Y-10272650D01*
X13027610Y-10272650D02*
X13056182Y-10272650D01*
X13056182Y-10272650D02*
X13075230Y-10282174D01*
X13075230Y-10282174D02*
X13084753Y-10291698D01*
X13084753Y-10291698D02*
X13094277Y-10310746D01*
X13094277Y-10310746D02*
X13094277Y-10367889D01*
X13094277Y-10367889D02*
X13084753Y-10386936D01*
X13084753Y-10386936D02*
X13075230Y-10396460D01*
X13075230Y-10396460D02*
X13056182Y-10405984D01*
X13056182Y-10405984D02*
X13027610Y-10405984D01*
X13208563Y-10405984D02*
X13189515Y-10396460D01*
X13189515Y-10396460D02*
X13179991Y-10377412D01*
X13179991Y-10377412D02*
X13179991Y-10205984D01*
X13360944Y-10396460D02*
X13341896Y-10405984D01*
X13341896Y-10405984D02*
X13303801Y-10405984D01*
X13303801Y-10405984D02*
X13284753Y-10396460D01*
X13284753Y-10396460D02*
X13275230Y-10377412D01*
X13275230Y-10377412D02*
X13275230Y-10301222D01*
X13275230Y-10301222D02*
X13284753Y-10282174D01*
X13284753Y-10282174D02*
X13303801Y-10272650D01*
X13303801Y-10272650D02*
X13341896Y-10272650D01*
X13341896Y-10272650D02*
X13360944Y-10282174D01*
X13360944Y-10282174D02*
X13370468Y-10301222D01*
X13370468Y-10301222D02*
X13370468Y-10320270D01*
X13370468Y-10320270D02*
X13275230Y-10339317D01*
X13446658Y-10396460D02*
X13465706Y-10405984D01*
X13465706Y-10405984D02*
X13503801Y-10405984D01*
X13503801Y-10405984D02*
X13522849Y-10396460D01*
X13522849Y-10396460D02*
X13532372Y-10377412D01*
X13532372Y-10377412D02*
X13532372Y-10367889D01*
X13532372Y-10367889D02*
X13522849Y-10348841D01*
X13522849Y-10348841D02*
X13503801Y-10339317D01*
X13503801Y-10339317D02*
X13475230Y-10339317D01*
X13475230Y-10339317D02*
X13456182Y-10329793D01*
X13456182Y-10329793D02*
X13446658Y-10310746D01*
X13446658Y-10310746D02*
X13446658Y-10301222D01*
X13446658Y-10301222D02*
X13456182Y-10282174D01*
X13456182Y-10282174D02*
X13475230Y-10272650D01*
X13475230Y-10272650D02*
X13503801Y-10272650D01*
X13503801Y-10272650D02*
X13522849Y-10282174D01*
X13599039Y-10482174D02*
X13608563Y-10472650D01*
X13608563Y-10472650D02*
X13627611Y-10444079D01*
X13627611Y-10444079D02*
X13637134Y-10425031D01*
X13637134Y-10425031D02*
X13646658Y-10396460D01*
X13646658Y-10396460D02*
X13656182Y-10348841D01*
X13656182Y-10348841D02*
X13656182Y-10310746D01*
X13656182Y-10310746D02*
X13646658Y-10263127D01*
X13646658Y-10263127D02*
X13637134Y-10234555D01*
X13637134Y-10234555D02*
X13627611Y-10215508D01*
X13627611Y-10215508D02*
X13608563Y-10186936D01*
X13608563Y-10186936D02*
X13599039Y-10177412D01*
D13*
X8614462Y-10624462D02*
X8614462Y-10532538D01*
X8522538Y-10532538D01*
X8522538Y-10624462D01*
X8614462Y-10624462D01*
D11*
X8999039Y-10669984D02*
X8884753Y-10669984D01*
X8941896Y-10669984D02*
X8941896Y-10469984D01*
X8941896Y-10469984D02*
X8922848Y-10498555D01*
X8922848Y-10498555D02*
X8903801Y-10517603D01*
X8903801Y-10517603D02*
X8884753Y-10527127D01*
X9084753Y-10650936D02*
X9094277Y-10660460D01*
X9094277Y-10660460D02*
X9084753Y-10669984D01*
X9084753Y-10669984D02*
X9075229Y-10660460D01*
X9075229Y-10660460D02*
X9084753Y-10650936D01*
X9084753Y-10650936D02*
X9084753Y-10669984D01*
X9160944Y-10469984D02*
X9284753Y-10469984D01*
X9284753Y-10469984D02*
X9218086Y-10546174D01*
X9218086Y-10546174D02*
X9246658Y-10546174D01*
X9246658Y-10546174D02*
X9265705Y-10555698D01*
X9265705Y-10555698D02*
X9275229Y-10565222D01*
X9275229Y-10565222D02*
X9284753Y-10584270D01*
X9284753Y-10584270D02*
X9284753Y-10631889D01*
X9284753Y-10631889D02*
X9275229Y-10650936D01*
X9275229Y-10650936D02*
X9265705Y-10660460D01*
X9265705Y-10660460D02*
X9246658Y-10669984D01*
X9246658Y-10669984D02*
X9189515Y-10669984D01*
X9189515Y-10669984D02*
X9170467Y-10660460D01*
X9170467Y-10660460D02*
X9160944Y-10650936D01*
X9408563Y-10469984D02*
X9427610Y-10469984D01*
X9427610Y-10469984D02*
X9446658Y-10479508D01*
X9446658Y-10479508D02*
X9456182Y-10489031D01*
X9456182Y-10489031D02*
X9465705Y-10508079D01*
X9465705Y-10508079D02*
X9475229Y-10546174D01*
X9475229Y-10546174D02*
X9475229Y-10593793D01*
X9475229Y-10593793D02*
X9465705Y-10631889D01*
X9465705Y-10631889D02*
X9456182Y-10650936D01*
X9456182Y-10650936D02*
X9446658Y-10660460D01*
X9446658Y-10660460D02*
X9427610Y-10669984D01*
X9427610Y-10669984D02*
X9408563Y-10669984D01*
X9408563Y-10669984D02*
X9389515Y-10660460D01*
X9389515Y-10660460D02*
X9379991Y-10650936D01*
X9379991Y-10650936D02*
X9370467Y-10631889D01*
X9370467Y-10631889D02*
X9360944Y-10593793D01*
X9360944Y-10593793D02*
X9360944Y-10546174D01*
X9360944Y-10546174D02*
X9370467Y-10508079D01*
X9370467Y-10508079D02*
X9379991Y-10489031D01*
X9379991Y-10489031D02*
X9389515Y-10479508D01*
X9389515Y-10479508D02*
X9408563Y-10469984D01*
X9599039Y-10469984D02*
X9618086Y-10469984D01*
X9618086Y-10469984D02*
X9637134Y-10479508D01*
X9637134Y-10479508D02*
X9646658Y-10489031D01*
X9646658Y-10489031D02*
X9656182Y-10508079D01*
X9656182Y-10508079D02*
X9665705Y-10546174D01*
X9665705Y-10546174D02*
X9665705Y-10593793D01*
X9665705Y-10593793D02*
X9656182Y-10631889D01*
X9656182Y-10631889D02*
X9646658Y-10650936D01*
X9646658Y-10650936D02*
X9637134Y-10660460D01*
X9637134Y-10660460D02*
X9618086Y-10669984D01*
X9618086Y-10669984D02*
X9599039Y-10669984D01*
X9599039Y-10669984D02*
X9579991Y-10660460D01*
X9579991Y-10660460D02*
X9570467Y-10650936D01*
X9570467Y-10650936D02*
X9560944Y-10631889D01*
X9560944Y-10631889D02*
X9551420Y-10593793D01*
X9551420Y-10593793D02*
X9551420Y-10546174D01*
X9551420Y-10546174D02*
X9560944Y-10508079D01*
X9560944Y-10508079D02*
X9570467Y-10489031D01*
X9570467Y-10489031D02*
X9579991Y-10479508D01*
X9579991Y-10479508D02*
X9599039Y-10469984D01*
X9751420Y-10669984D02*
X9751420Y-10536650D01*
X9751420Y-10555698D02*
X9760944Y-10546174D01*
X9760944Y-10546174D02*
X9779991Y-10536650D01*
X9779991Y-10536650D02*
X9808563Y-10536650D01*
X9808563Y-10536650D02*
X9827610Y-10546174D01*
X9827610Y-10546174D02*
X9837134Y-10565222D01*
X9837134Y-10565222D02*
X9837134Y-10669984D01*
X9837134Y-10565222D02*
X9846658Y-10546174D01*
X9846658Y-10546174D02*
X9865705Y-10536650D01*
X9865705Y-10536650D02*
X9894277Y-10536650D01*
X9894277Y-10536650D02*
X9913325Y-10546174D01*
X9913325Y-10546174D02*
X9922848Y-10565222D01*
X9922848Y-10565222D02*
X9922848Y-10669984D01*
X10018086Y-10669984D02*
X10018086Y-10536650D01*
X10018086Y-10555698D02*
X10027610Y-10546174D01*
X10027610Y-10546174D02*
X10046658Y-10536650D01*
X10046658Y-10536650D02*
X10075229Y-10536650D01*
X10075229Y-10536650D02*
X10094277Y-10546174D01*
X10094277Y-10546174D02*
X10103801Y-10565222D01*
X10103801Y-10565222D02*
X10103801Y-10669984D01*
X10103801Y-10565222D02*
X10113325Y-10546174D01*
X10113325Y-10546174D02*
X10132372Y-10536650D01*
X10132372Y-10536650D02*
X10160944Y-10536650D01*
X10160944Y-10536650D02*
X10179991Y-10546174D01*
X10179991Y-10546174D02*
X10189515Y-10565222D01*
X10189515Y-10565222D02*
X10189515Y-10669984D01*
X10579991Y-10460460D02*
X10408563Y-10717603D01*
X10837134Y-10469984D02*
X10856182Y-10469984D01*
X10856182Y-10469984D02*
X10875229Y-10479508D01*
X10875229Y-10479508D02*
X10884753Y-10489031D01*
X10884753Y-10489031D02*
X10894277Y-10508079D01*
X10894277Y-10508079D02*
X10903801Y-10546174D01*
X10903801Y-10546174D02*
X10903801Y-10593793D01*
X10903801Y-10593793D02*
X10894277Y-10631889D01*
X10894277Y-10631889D02*
X10884753Y-10650936D01*
X10884753Y-10650936D02*
X10875229Y-10660460D01*
X10875229Y-10660460D02*
X10856182Y-10669984D01*
X10856182Y-10669984D02*
X10837134Y-10669984D01*
X10837134Y-10669984D02*
X10818087Y-10660460D01*
X10818087Y-10660460D02*
X10808563Y-10650936D01*
X10808563Y-10650936D02*
X10799039Y-10631889D01*
X10799039Y-10631889D02*
X10789515Y-10593793D01*
X10789515Y-10593793D02*
X10789515Y-10546174D01*
X10789515Y-10546174D02*
X10799039Y-10508079D01*
X10799039Y-10508079D02*
X10808563Y-10489031D01*
X10808563Y-10489031D02*
X10818087Y-10479508D01*
X10818087Y-10479508D02*
X10837134Y-10469984D01*
X10989515Y-10650936D02*
X10999039Y-10660460D01*
X10999039Y-10660460D02*
X10989515Y-10669984D01*
X10989515Y-10669984D02*
X10979991Y-10660460D01*
X10979991Y-10660460D02*
X10989515Y-10650936D01*
X10989515Y-10650936D02*
X10989515Y-10669984D01*
X11122848Y-10469984D02*
X11141896Y-10469984D01*
X11141896Y-10469984D02*
X11160944Y-10479508D01*
X11160944Y-10479508D02*
X11170468Y-10489031D01*
X11170468Y-10489031D02*
X11179991Y-10508079D01*
X11179991Y-10508079D02*
X11189515Y-10546174D01*
X11189515Y-10546174D02*
X11189515Y-10593793D01*
X11189515Y-10593793D02*
X11179991Y-10631889D01*
X11179991Y-10631889D02*
X11170468Y-10650936D01*
X11170468Y-10650936D02*
X11160944Y-10660460D01*
X11160944Y-10660460D02*
X11141896Y-10669984D01*
X11141896Y-10669984D02*
X11122848Y-10669984D01*
X11122848Y-10669984D02*
X11103801Y-10660460D01*
X11103801Y-10660460D02*
X11094277Y-10650936D01*
X11094277Y-10650936D02*
X11084753Y-10631889D01*
X11084753Y-10631889D02*
X11075229Y-10593793D01*
X11075229Y-10593793D02*
X11075229Y-10546174D01*
X11075229Y-10546174D02*
X11084753Y-10508079D01*
X11084753Y-10508079D02*
X11094277Y-10489031D01*
X11094277Y-10489031D02*
X11103801Y-10479508D01*
X11103801Y-10479508D02*
X11122848Y-10469984D01*
X11370467Y-10469984D02*
X11275229Y-10469984D01*
X11275229Y-10469984D02*
X11265706Y-10565222D01*
X11265706Y-10565222D02*
X11275229Y-10555698D01*
X11275229Y-10555698D02*
X11294277Y-10546174D01*
X11294277Y-10546174D02*
X11341896Y-10546174D01*
X11341896Y-10546174D02*
X11360944Y-10555698D01*
X11360944Y-10555698D02*
X11370467Y-10565222D01*
X11370467Y-10565222D02*
X11379991Y-10584270D01*
X11379991Y-10584270D02*
X11379991Y-10631889D01*
X11379991Y-10631889D02*
X11370467Y-10650936D01*
X11370467Y-10650936D02*
X11360944Y-10660460D01*
X11360944Y-10660460D02*
X11341896Y-10669984D01*
X11341896Y-10669984D02*
X11294277Y-10669984D01*
X11294277Y-10669984D02*
X11275229Y-10660460D01*
X11275229Y-10660460D02*
X11265706Y-10650936D01*
X11570467Y-10669984D02*
X11456182Y-10669984D01*
X11513325Y-10669984D02*
X11513325Y-10469984D01*
X11513325Y-10469984D02*
X11494277Y-10498555D01*
X11494277Y-10498555D02*
X11475229Y-10517603D01*
X11475229Y-10517603D02*
X11456182Y-10527127D01*
X11646658Y-10489031D02*
X11656182Y-10479508D01*
X11656182Y-10479508D02*
X11675229Y-10469984D01*
X11675229Y-10469984D02*
X11722848Y-10469984D01*
X11722848Y-10469984D02*
X11741896Y-10479508D01*
X11741896Y-10479508D02*
X11751420Y-10489031D01*
X11751420Y-10489031D02*
X11760944Y-10508079D01*
X11760944Y-10508079D02*
X11760944Y-10527127D01*
X11760944Y-10527127D02*
X11751420Y-10555698D01*
X11751420Y-10555698D02*
X11637134Y-10669984D01*
X11637134Y-10669984D02*
X11760944Y-10669984D01*
X11837134Y-10469984D02*
X11837134Y-10508079D01*
X11913325Y-10469984D02*
X11913325Y-10508079D01*
X12208563Y-10746174D02*
X12199039Y-10736650D01*
X12199039Y-10736650D02*
X12179991Y-10708079D01*
X12179991Y-10708079D02*
X12170468Y-10689031D01*
X12170468Y-10689031D02*
X12160944Y-10660460D01*
X12160944Y-10660460D02*
X12151420Y-10612841D01*
X12151420Y-10612841D02*
X12151420Y-10574746D01*
X12151420Y-10574746D02*
X12160944Y-10527127D01*
X12160944Y-10527127D02*
X12170468Y-10498555D01*
X12170468Y-10498555D02*
X12179991Y-10479508D01*
X12179991Y-10479508D02*
X12199039Y-10450936D01*
X12199039Y-10450936D02*
X12208563Y-10441412D01*
X12275229Y-10489031D02*
X12284753Y-10479508D01*
X12284753Y-10479508D02*
X12303801Y-10469984D01*
X12303801Y-10469984D02*
X12351420Y-10469984D01*
X12351420Y-10469984D02*
X12370468Y-10479508D01*
X12370468Y-10479508D02*
X12379991Y-10489031D01*
X12379991Y-10489031D02*
X12389515Y-10508079D01*
X12389515Y-10508079D02*
X12389515Y-10527127D01*
X12389515Y-10527127D02*
X12379991Y-10555698D01*
X12379991Y-10555698D02*
X12265706Y-10669984D01*
X12265706Y-10669984D02*
X12389515Y-10669984D01*
X12627610Y-10669984D02*
X12627610Y-10469984D01*
X12713325Y-10669984D02*
X12713325Y-10565222D01*
X12713325Y-10565222D02*
X12703801Y-10546174D01*
X12703801Y-10546174D02*
X12684753Y-10536650D01*
X12684753Y-10536650D02*
X12656182Y-10536650D01*
X12656182Y-10536650D02*
X12637134Y-10546174D01*
X12637134Y-10546174D02*
X12627610Y-10555698D01*
X12837134Y-10669984D02*
X12818087Y-10660460D01*
X12818087Y-10660460D02*
X12808563Y-10650936D01*
X12808563Y-10650936D02*
X12799039Y-10631889D01*
X12799039Y-10631889D02*
X12799039Y-10574746D01*
X12799039Y-10574746D02*
X12808563Y-10555698D01*
X12808563Y-10555698D02*
X12818087Y-10546174D01*
X12818087Y-10546174D02*
X12837134Y-10536650D01*
X12837134Y-10536650D02*
X12865706Y-10536650D01*
X12865706Y-10536650D02*
X12884753Y-10546174D01*
X12884753Y-10546174D02*
X12894277Y-10555698D01*
X12894277Y-10555698D02*
X12903801Y-10574746D01*
X12903801Y-10574746D02*
X12903801Y-10631889D01*
X12903801Y-10631889D02*
X12894277Y-10650936D01*
X12894277Y-10650936D02*
X12884753Y-10660460D01*
X12884753Y-10660460D02*
X12865706Y-10669984D01*
X12865706Y-10669984D02*
X12837134Y-10669984D01*
X13018087Y-10669984D02*
X12999039Y-10660460D01*
X12999039Y-10660460D02*
X12989515Y-10641412D01*
X12989515Y-10641412D02*
X12989515Y-10469984D01*
X13170468Y-10660460D02*
X13151420Y-10669984D01*
X13151420Y-10669984D02*
X13113325Y-10669984D01*
X13113325Y-10669984D02*
X13094277Y-10660460D01*
X13094277Y-10660460D02*
X13084753Y-10641412D01*
X13084753Y-10641412D02*
X13084753Y-10565222D01*
X13084753Y-10565222D02*
X13094277Y-10546174D01*
X13094277Y-10546174D02*
X13113325Y-10536650D01*
X13113325Y-10536650D02*
X13151420Y-10536650D01*
X13151420Y-10536650D02*
X13170468Y-10546174D01*
X13170468Y-10546174D02*
X13179991Y-10565222D01*
X13179991Y-10565222D02*
X13179991Y-10584270D01*
X13179991Y-10584270D02*
X13084753Y-10603317D01*
X13256182Y-10660460D02*
X13275230Y-10669984D01*
X13275230Y-10669984D02*
X13313325Y-10669984D01*
X13313325Y-10669984D02*
X13332372Y-10660460D01*
X13332372Y-10660460D02*
X13341896Y-10641412D01*
X13341896Y-10641412D02*
X13341896Y-10631889D01*
X13341896Y-10631889D02*
X13332372Y-10612841D01*
X13332372Y-10612841D02*
X13313325Y-10603317D01*
X13313325Y-10603317D02*
X13284753Y-10603317D01*
X13284753Y-10603317D02*
X13265706Y-10593793D01*
X13265706Y-10593793D02*
X13256182Y-10574746D01*
X13256182Y-10574746D02*
X13256182Y-10565222D01*
X13256182Y-10565222D02*
X13265706Y-10546174D01*
X13265706Y-10546174D02*
X13284753Y-10536650D01*
X13284753Y-10536650D02*
X13313325Y-10536650D01*
X13313325Y-10536650D02*
X13332372Y-10546174D01*
X13408563Y-10746174D02*
X13418087Y-10736650D01*
X13418087Y-10736650D02*
X13437134Y-10708079D01*
X13437134Y-10708079D02*
X13446658Y-10689031D01*
X13446658Y-10689031D02*
X13456182Y-10660460D01*
X13456182Y-10660460D02*
X13465706Y-10612841D01*
X13465706Y-10612841D02*
X13465706Y-10574746D01*
X13465706Y-10574746D02*
X13456182Y-10527127D01*
X13456182Y-10527127D02*
X13446658Y-10498555D01*
X13446658Y-10498555D02*
X13437134Y-10479508D01*
X13437134Y-10479508D02*
X13418087Y-10450936D01*
X13418087Y-10450936D02*
X13408563Y-10441412D01*
M02*
