%TF.GenerationSoftware,KiCad,Pcbnew,8.0.8*%
%TF.CreationDate,2025-05-02T07:16:06-04:00*%
%TF.ProjectId,DevBoard1,44657642-6f61-4726-9431-2e6b69636164,rev?*%
%TF.SameCoordinates,Original*%
%TF.FileFunction,Drillmap*%
%TF.FilePolarity,Positive*%
%FSLAX45Y45*%
G04 Gerber Fmt 4.5, Leading zero omitted, Abs format (unit mm)*
G04 Created by KiCad (PCBNEW 8.0.8) date 2025-05-02 07:16:06*
%MOMM*%
%LPD*%
G01*
G04 APERTURE LIST*
%ADD10C,0.050000*%
%ADD11C,0.200000*%
%ADD12C,0.325000*%
G04 APERTURE END LIST*
D10*
X8636000Y-4521200D02*
X10668000Y-4521200D01*
X10668000Y-9144000D01*
X8636000Y-9144000D01*
X8636000Y-4521200D01*
D11*
D12*
X9057700Y-5044500D02*
X9382700Y-5369500D01*
X9382700Y-5044500D02*
X9057700Y-5369500D01*
X9819700Y-5044500D02*
X10144700Y-5369500D01*
X10144700Y-5044500D02*
X9819700Y-5369500D01*
D11*
X8894277Y-9457984D02*
X8894277Y-9257984D01*
X8894277Y-9257984D02*
X8941896Y-9257984D01*
X8941896Y-9257984D02*
X8970467Y-9267508D01*
X8970467Y-9267508D02*
X8989515Y-9286555D01*
X8989515Y-9286555D02*
X8999039Y-9305603D01*
X8999039Y-9305603D02*
X9008563Y-9343698D01*
X9008563Y-9343698D02*
X9008563Y-9372270D01*
X9008563Y-9372270D02*
X8999039Y-9410365D01*
X8999039Y-9410365D02*
X8989515Y-9429412D01*
X8989515Y-9429412D02*
X8970467Y-9448460D01*
X8970467Y-9448460D02*
X8941896Y-9457984D01*
X8941896Y-9457984D02*
X8894277Y-9457984D01*
X9094277Y-9457984D02*
X9094277Y-9324650D01*
X9094277Y-9362746D02*
X9103801Y-9343698D01*
X9103801Y-9343698D02*
X9113324Y-9334174D01*
X9113324Y-9334174D02*
X9132372Y-9324650D01*
X9132372Y-9324650D02*
X9151420Y-9324650D01*
X9218086Y-9457984D02*
X9218086Y-9324650D01*
X9218086Y-9257984D02*
X9208563Y-9267508D01*
X9208563Y-9267508D02*
X9218086Y-9277031D01*
X9218086Y-9277031D02*
X9227610Y-9267508D01*
X9227610Y-9267508D02*
X9218086Y-9257984D01*
X9218086Y-9257984D02*
X9218086Y-9277031D01*
X9341896Y-9457984D02*
X9322848Y-9448460D01*
X9322848Y-9448460D02*
X9313324Y-9429412D01*
X9313324Y-9429412D02*
X9313324Y-9257984D01*
X9446658Y-9457984D02*
X9427610Y-9448460D01*
X9427610Y-9448460D02*
X9418086Y-9429412D01*
X9418086Y-9429412D02*
X9418086Y-9257984D01*
X9675229Y-9457984D02*
X9675229Y-9257984D01*
X9675229Y-9257984D02*
X9741896Y-9400841D01*
X9741896Y-9400841D02*
X9808563Y-9257984D01*
X9808563Y-9257984D02*
X9808563Y-9457984D01*
X9989515Y-9457984D02*
X9989515Y-9353222D01*
X9989515Y-9353222D02*
X9979991Y-9334174D01*
X9979991Y-9334174D02*
X9960944Y-9324650D01*
X9960944Y-9324650D02*
X9922848Y-9324650D01*
X9922848Y-9324650D02*
X9903801Y-9334174D01*
X9989515Y-9448460D02*
X9970467Y-9457984D01*
X9970467Y-9457984D02*
X9922848Y-9457984D01*
X9922848Y-9457984D02*
X9903801Y-9448460D01*
X9903801Y-9448460D02*
X9894277Y-9429412D01*
X9894277Y-9429412D02*
X9894277Y-9410365D01*
X9894277Y-9410365D02*
X9903801Y-9391317D01*
X9903801Y-9391317D02*
X9922848Y-9381793D01*
X9922848Y-9381793D02*
X9970467Y-9381793D01*
X9970467Y-9381793D02*
X9989515Y-9372270D01*
X10084753Y-9324650D02*
X10084753Y-9524650D01*
X10084753Y-9334174D02*
X10103801Y-9324650D01*
X10103801Y-9324650D02*
X10141896Y-9324650D01*
X10141896Y-9324650D02*
X10160944Y-9334174D01*
X10160944Y-9334174D02*
X10170467Y-9343698D01*
X10170467Y-9343698D02*
X10179991Y-9362746D01*
X10179991Y-9362746D02*
X10179991Y-9419889D01*
X10179991Y-9419889D02*
X10170467Y-9438936D01*
X10170467Y-9438936D02*
X10160944Y-9448460D01*
X10160944Y-9448460D02*
X10141896Y-9457984D01*
X10141896Y-9457984D02*
X10103801Y-9457984D01*
X10103801Y-9457984D02*
X10084753Y-9448460D01*
X10265705Y-9438936D02*
X10275229Y-9448460D01*
X10275229Y-9448460D02*
X10265705Y-9457984D01*
X10265705Y-9457984D02*
X10256182Y-9448460D01*
X10256182Y-9448460D02*
X10265705Y-9438936D01*
X10265705Y-9438936D02*
X10265705Y-9457984D01*
X10265705Y-9334174D02*
X10275229Y-9343698D01*
X10275229Y-9343698D02*
X10265705Y-9353222D01*
X10265705Y-9353222D02*
X10256182Y-9343698D01*
X10256182Y-9343698D02*
X10265705Y-9334174D01*
X10265705Y-9334174D02*
X10265705Y-9353222D01*
X8433500Y-9686500D02*
X8633500Y-9886500D01*
X8633500Y-9686500D02*
X8433500Y-9886500D01*
X8875229Y-9677984D02*
X8999039Y-9677984D01*
X8999039Y-9677984D02*
X8932372Y-9754174D01*
X8932372Y-9754174D02*
X8960944Y-9754174D01*
X8960944Y-9754174D02*
X8979991Y-9763698D01*
X8979991Y-9763698D02*
X8989515Y-9773222D01*
X8989515Y-9773222D02*
X8999039Y-9792270D01*
X8999039Y-9792270D02*
X8999039Y-9839889D01*
X8999039Y-9839889D02*
X8989515Y-9858936D01*
X8989515Y-9858936D02*
X8979991Y-9868460D01*
X8979991Y-9868460D02*
X8960944Y-9877984D01*
X8960944Y-9877984D02*
X8903801Y-9877984D01*
X8903801Y-9877984D02*
X8884753Y-9868460D01*
X8884753Y-9868460D02*
X8875229Y-9858936D01*
X9084753Y-9858936D02*
X9094277Y-9868460D01*
X9094277Y-9868460D02*
X9084753Y-9877984D01*
X9084753Y-9877984D02*
X9075229Y-9868460D01*
X9075229Y-9868460D02*
X9084753Y-9858936D01*
X9084753Y-9858936D02*
X9084753Y-9877984D01*
X9170467Y-9697031D02*
X9179991Y-9687508D01*
X9179991Y-9687508D02*
X9199039Y-9677984D01*
X9199039Y-9677984D02*
X9246658Y-9677984D01*
X9246658Y-9677984D02*
X9265705Y-9687508D01*
X9265705Y-9687508D02*
X9275229Y-9697031D01*
X9275229Y-9697031D02*
X9284753Y-9716079D01*
X9284753Y-9716079D02*
X9284753Y-9735127D01*
X9284753Y-9735127D02*
X9275229Y-9763698D01*
X9275229Y-9763698D02*
X9160944Y-9877984D01*
X9160944Y-9877984D02*
X9284753Y-9877984D01*
X9465705Y-9677984D02*
X9370467Y-9677984D01*
X9370467Y-9677984D02*
X9360944Y-9773222D01*
X9360944Y-9773222D02*
X9370467Y-9763698D01*
X9370467Y-9763698D02*
X9389515Y-9754174D01*
X9389515Y-9754174D02*
X9437134Y-9754174D01*
X9437134Y-9754174D02*
X9456182Y-9763698D01*
X9456182Y-9763698D02*
X9465705Y-9773222D01*
X9465705Y-9773222D02*
X9475229Y-9792270D01*
X9475229Y-9792270D02*
X9475229Y-9839889D01*
X9475229Y-9839889D02*
X9465705Y-9858936D01*
X9465705Y-9858936D02*
X9456182Y-9868460D01*
X9456182Y-9868460D02*
X9437134Y-9877984D01*
X9437134Y-9877984D02*
X9389515Y-9877984D01*
X9389515Y-9877984D02*
X9370467Y-9868460D01*
X9370467Y-9868460D02*
X9360944Y-9858936D01*
X9599039Y-9677984D02*
X9618086Y-9677984D01*
X9618086Y-9677984D02*
X9637134Y-9687508D01*
X9637134Y-9687508D02*
X9646658Y-9697031D01*
X9646658Y-9697031D02*
X9656182Y-9716079D01*
X9656182Y-9716079D02*
X9665705Y-9754174D01*
X9665705Y-9754174D02*
X9665705Y-9801793D01*
X9665705Y-9801793D02*
X9656182Y-9839889D01*
X9656182Y-9839889D02*
X9646658Y-9858936D01*
X9646658Y-9858936D02*
X9637134Y-9868460D01*
X9637134Y-9868460D02*
X9618086Y-9877984D01*
X9618086Y-9877984D02*
X9599039Y-9877984D01*
X9599039Y-9877984D02*
X9579991Y-9868460D01*
X9579991Y-9868460D02*
X9570467Y-9858936D01*
X9570467Y-9858936D02*
X9560944Y-9839889D01*
X9560944Y-9839889D02*
X9551420Y-9801793D01*
X9551420Y-9801793D02*
X9551420Y-9754174D01*
X9551420Y-9754174D02*
X9560944Y-9716079D01*
X9560944Y-9716079D02*
X9570467Y-9697031D01*
X9570467Y-9697031D02*
X9579991Y-9687508D01*
X9579991Y-9687508D02*
X9599039Y-9677984D01*
X9751420Y-9877984D02*
X9751420Y-9744650D01*
X9751420Y-9763698D02*
X9760944Y-9754174D01*
X9760944Y-9754174D02*
X9779991Y-9744650D01*
X9779991Y-9744650D02*
X9808563Y-9744650D01*
X9808563Y-9744650D02*
X9827610Y-9754174D01*
X9827610Y-9754174D02*
X9837134Y-9773222D01*
X9837134Y-9773222D02*
X9837134Y-9877984D01*
X9837134Y-9773222D02*
X9846658Y-9754174D01*
X9846658Y-9754174D02*
X9865705Y-9744650D01*
X9865705Y-9744650D02*
X9894277Y-9744650D01*
X9894277Y-9744650D02*
X9913325Y-9754174D01*
X9913325Y-9754174D02*
X9922848Y-9773222D01*
X9922848Y-9773222D02*
X9922848Y-9877984D01*
X10018086Y-9877984D02*
X10018086Y-9744650D01*
X10018086Y-9763698D02*
X10027610Y-9754174D01*
X10027610Y-9754174D02*
X10046658Y-9744650D01*
X10046658Y-9744650D02*
X10075229Y-9744650D01*
X10075229Y-9744650D02*
X10094277Y-9754174D01*
X10094277Y-9754174D02*
X10103801Y-9773222D01*
X10103801Y-9773222D02*
X10103801Y-9877984D01*
X10103801Y-9773222D02*
X10113325Y-9754174D01*
X10113325Y-9754174D02*
X10132372Y-9744650D01*
X10132372Y-9744650D02*
X10160944Y-9744650D01*
X10160944Y-9744650D02*
X10179991Y-9754174D01*
X10179991Y-9754174D02*
X10189515Y-9773222D01*
X10189515Y-9773222D02*
X10189515Y-9877984D01*
X10579991Y-9668460D02*
X10408563Y-9925603D01*
X10837134Y-9677984D02*
X10856182Y-9677984D01*
X10856182Y-9677984D02*
X10875229Y-9687508D01*
X10875229Y-9687508D02*
X10884753Y-9697031D01*
X10884753Y-9697031D02*
X10894277Y-9716079D01*
X10894277Y-9716079D02*
X10903801Y-9754174D01*
X10903801Y-9754174D02*
X10903801Y-9801793D01*
X10903801Y-9801793D02*
X10894277Y-9839889D01*
X10894277Y-9839889D02*
X10884753Y-9858936D01*
X10884753Y-9858936D02*
X10875229Y-9868460D01*
X10875229Y-9868460D02*
X10856182Y-9877984D01*
X10856182Y-9877984D02*
X10837134Y-9877984D01*
X10837134Y-9877984D02*
X10818087Y-9868460D01*
X10818087Y-9868460D02*
X10808563Y-9858936D01*
X10808563Y-9858936D02*
X10799039Y-9839889D01*
X10799039Y-9839889D02*
X10789515Y-9801793D01*
X10789515Y-9801793D02*
X10789515Y-9754174D01*
X10789515Y-9754174D02*
X10799039Y-9716079D01*
X10799039Y-9716079D02*
X10808563Y-9697031D01*
X10808563Y-9697031D02*
X10818087Y-9687508D01*
X10818087Y-9687508D02*
X10837134Y-9677984D01*
X10989515Y-9858936D02*
X10999039Y-9868460D01*
X10999039Y-9868460D02*
X10989515Y-9877984D01*
X10989515Y-9877984D02*
X10979991Y-9868460D01*
X10979991Y-9868460D02*
X10989515Y-9858936D01*
X10989515Y-9858936D02*
X10989515Y-9877984D01*
X11189515Y-9877984D02*
X11075229Y-9877984D01*
X11132372Y-9877984D02*
X11132372Y-9677984D01*
X11132372Y-9677984D02*
X11113325Y-9706555D01*
X11113325Y-9706555D02*
X11094277Y-9725603D01*
X11094277Y-9725603D02*
X11075229Y-9735127D01*
X11265706Y-9697031D02*
X11275229Y-9687508D01*
X11275229Y-9687508D02*
X11294277Y-9677984D01*
X11294277Y-9677984D02*
X11341896Y-9677984D01*
X11341896Y-9677984D02*
X11360944Y-9687508D01*
X11360944Y-9687508D02*
X11370467Y-9697031D01*
X11370467Y-9697031D02*
X11379991Y-9716079D01*
X11379991Y-9716079D02*
X11379991Y-9735127D01*
X11379991Y-9735127D02*
X11370467Y-9763698D01*
X11370467Y-9763698D02*
X11256182Y-9877984D01*
X11256182Y-9877984D02*
X11379991Y-9877984D01*
X11494277Y-9763698D02*
X11475229Y-9754174D01*
X11475229Y-9754174D02*
X11465706Y-9744650D01*
X11465706Y-9744650D02*
X11456182Y-9725603D01*
X11456182Y-9725603D02*
X11456182Y-9716079D01*
X11456182Y-9716079D02*
X11465706Y-9697031D01*
X11465706Y-9697031D02*
X11475229Y-9687508D01*
X11475229Y-9687508D02*
X11494277Y-9677984D01*
X11494277Y-9677984D02*
X11532372Y-9677984D01*
X11532372Y-9677984D02*
X11551420Y-9687508D01*
X11551420Y-9687508D02*
X11560944Y-9697031D01*
X11560944Y-9697031D02*
X11570467Y-9716079D01*
X11570467Y-9716079D02*
X11570467Y-9725603D01*
X11570467Y-9725603D02*
X11560944Y-9744650D01*
X11560944Y-9744650D02*
X11551420Y-9754174D01*
X11551420Y-9754174D02*
X11532372Y-9763698D01*
X11532372Y-9763698D02*
X11494277Y-9763698D01*
X11494277Y-9763698D02*
X11475229Y-9773222D01*
X11475229Y-9773222D02*
X11465706Y-9782746D01*
X11465706Y-9782746D02*
X11456182Y-9801793D01*
X11456182Y-9801793D02*
X11456182Y-9839889D01*
X11456182Y-9839889D02*
X11465706Y-9858936D01*
X11465706Y-9858936D02*
X11475229Y-9868460D01*
X11475229Y-9868460D02*
X11494277Y-9877984D01*
X11494277Y-9877984D02*
X11532372Y-9877984D01*
X11532372Y-9877984D02*
X11551420Y-9868460D01*
X11551420Y-9868460D02*
X11560944Y-9858936D01*
X11560944Y-9858936D02*
X11570467Y-9839889D01*
X11570467Y-9839889D02*
X11570467Y-9801793D01*
X11570467Y-9801793D02*
X11560944Y-9782746D01*
X11560944Y-9782746D02*
X11551420Y-9773222D01*
X11551420Y-9773222D02*
X11532372Y-9763698D01*
X11694277Y-9677984D02*
X11713325Y-9677984D01*
X11713325Y-9677984D02*
X11732372Y-9687508D01*
X11732372Y-9687508D02*
X11741896Y-9697031D01*
X11741896Y-9697031D02*
X11751420Y-9716079D01*
X11751420Y-9716079D02*
X11760944Y-9754174D01*
X11760944Y-9754174D02*
X11760944Y-9801793D01*
X11760944Y-9801793D02*
X11751420Y-9839889D01*
X11751420Y-9839889D02*
X11741896Y-9858936D01*
X11741896Y-9858936D02*
X11732372Y-9868460D01*
X11732372Y-9868460D02*
X11713325Y-9877984D01*
X11713325Y-9877984D02*
X11694277Y-9877984D01*
X11694277Y-9877984D02*
X11675229Y-9868460D01*
X11675229Y-9868460D02*
X11665706Y-9858936D01*
X11665706Y-9858936D02*
X11656182Y-9839889D01*
X11656182Y-9839889D02*
X11646658Y-9801793D01*
X11646658Y-9801793D02*
X11646658Y-9754174D01*
X11646658Y-9754174D02*
X11656182Y-9716079D01*
X11656182Y-9716079D02*
X11665706Y-9697031D01*
X11665706Y-9697031D02*
X11675229Y-9687508D01*
X11675229Y-9687508D02*
X11694277Y-9677984D01*
X11837134Y-9677984D02*
X11837134Y-9716079D01*
X11913325Y-9677984D02*
X11913325Y-9716079D01*
X12208563Y-9954174D02*
X12199039Y-9944650D01*
X12199039Y-9944650D02*
X12179991Y-9916079D01*
X12179991Y-9916079D02*
X12170468Y-9897031D01*
X12170468Y-9897031D02*
X12160944Y-9868460D01*
X12160944Y-9868460D02*
X12151420Y-9820841D01*
X12151420Y-9820841D02*
X12151420Y-9782746D01*
X12151420Y-9782746D02*
X12160944Y-9735127D01*
X12160944Y-9735127D02*
X12170468Y-9706555D01*
X12170468Y-9706555D02*
X12179991Y-9687508D01*
X12179991Y-9687508D02*
X12199039Y-9658936D01*
X12199039Y-9658936D02*
X12208563Y-9649412D01*
X12275229Y-9697031D02*
X12284753Y-9687508D01*
X12284753Y-9687508D02*
X12303801Y-9677984D01*
X12303801Y-9677984D02*
X12351420Y-9677984D01*
X12351420Y-9677984D02*
X12370468Y-9687508D01*
X12370468Y-9687508D02*
X12379991Y-9697031D01*
X12379991Y-9697031D02*
X12389515Y-9716079D01*
X12389515Y-9716079D02*
X12389515Y-9735127D01*
X12389515Y-9735127D02*
X12379991Y-9763698D01*
X12379991Y-9763698D02*
X12265706Y-9877984D01*
X12265706Y-9877984D02*
X12389515Y-9877984D01*
X12627610Y-9877984D02*
X12627610Y-9677984D01*
X12713325Y-9877984D02*
X12713325Y-9773222D01*
X12713325Y-9773222D02*
X12703801Y-9754174D01*
X12703801Y-9754174D02*
X12684753Y-9744650D01*
X12684753Y-9744650D02*
X12656182Y-9744650D01*
X12656182Y-9744650D02*
X12637134Y-9754174D01*
X12637134Y-9754174D02*
X12627610Y-9763698D01*
X12837134Y-9877984D02*
X12818087Y-9868460D01*
X12818087Y-9868460D02*
X12808563Y-9858936D01*
X12808563Y-9858936D02*
X12799039Y-9839889D01*
X12799039Y-9839889D02*
X12799039Y-9782746D01*
X12799039Y-9782746D02*
X12808563Y-9763698D01*
X12808563Y-9763698D02*
X12818087Y-9754174D01*
X12818087Y-9754174D02*
X12837134Y-9744650D01*
X12837134Y-9744650D02*
X12865706Y-9744650D01*
X12865706Y-9744650D02*
X12884753Y-9754174D01*
X12884753Y-9754174D02*
X12894277Y-9763698D01*
X12894277Y-9763698D02*
X12903801Y-9782746D01*
X12903801Y-9782746D02*
X12903801Y-9839889D01*
X12903801Y-9839889D02*
X12894277Y-9858936D01*
X12894277Y-9858936D02*
X12884753Y-9868460D01*
X12884753Y-9868460D02*
X12865706Y-9877984D01*
X12865706Y-9877984D02*
X12837134Y-9877984D01*
X13018087Y-9877984D02*
X12999039Y-9868460D01*
X12999039Y-9868460D02*
X12989515Y-9849412D01*
X12989515Y-9849412D02*
X12989515Y-9677984D01*
X13170468Y-9868460D02*
X13151420Y-9877984D01*
X13151420Y-9877984D02*
X13113325Y-9877984D01*
X13113325Y-9877984D02*
X13094277Y-9868460D01*
X13094277Y-9868460D02*
X13084753Y-9849412D01*
X13084753Y-9849412D02*
X13084753Y-9773222D01*
X13084753Y-9773222D02*
X13094277Y-9754174D01*
X13094277Y-9754174D02*
X13113325Y-9744650D01*
X13113325Y-9744650D02*
X13151420Y-9744650D01*
X13151420Y-9744650D02*
X13170468Y-9754174D01*
X13170468Y-9754174D02*
X13179991Y-9773222D01*
X13179991Y-9773222D02*
X13179991Y-9792270D01*
X13179991Y-9792270D02*
X13084753Y-9811317D01*
X13256182Y-9868460D02*
X13275230Y-9877984D01*
X13275230Y-9877984D02*
X13313325Y-9877984D01*
X13313325Y-9877984D02*
X13332372Y-9868460D01*
X13332372Y-9868460D02*
X13341896Y-9849412D01*
X13341896Y-9849412D02*
X13341896Y-9839889D01*
X13341896Y-9839889D02*
X13332372Y-9820841D01*
X13332372Y-9820841D02*
X13313325Y-9811317D01*
X13313325Y-9811317D02*
X13284753Y-9811317D01*
X13284753Y-9811317D02*
X13265706Y-9801793D01*
X13265706Y-9801793D02*
X13256182Y-9782746D01*
X13256182Y-9782746D02*
X13256182Y-9773222D01*
X13256182Y-9773222D02*
X13265706Y-9754174D01*
X13265706Y-9754174D02*
X13284753Y-9744650D01*
X13284753Y-9744650D02*
X13313325Y-9744650D01*
X13313325Y-9744650D02*
X13332372Y-9754174D01*
X13408563Y-9954174D02*
X13418087Y-9944650D01*
X13418087Y-9944650D02*
X13437134Y-9916079D01*
X13437134Y-9916079D02*
X13446658Y-9897031D01*
X13446658Y-9897031D02*
X13456182Y-9868460D01*
X13456182Y-9868460D02*
X13465706Y-9820841D01*
X13465706Y-9820841D02*
X13465706Y-9782746D01*
X13465706Y-9782746D02*
X13456182Y-9735127D01*
X13456182Y-9735127D02*
X13446658Y-9706555D01*
X13446658Y-9706555D02*
X13437134Y-9687508D01*
X13437134Y-9687508D02*
X13418087Y-9658936D01*
X13418087Y-9658936D02*
X13408563Y-9649412D01*
X13770468Y-9954174D02*
X13760944Y-9944650D01*
X13760944Y-9944650D02*
X13741896Y-9916079D01*
X13741896Y-9916079D02*
X13732372Y-9897031D01*
X13732372Y-9897031D02*
X13722849Y-9868460D01*
X13722849Y-9868460D02*
X13713325Y-9820841D01*
X13713325Y-9820841D02*
X13713325Y-9782746D01*
X13713325Y-9782746D02*
X13722849Y-9735127D01*
X13722849Y-9735127D02*
X13732372Y-9706555D01*
X13732372Y-9706555D02*
X13741896Y-9687508D01*
X13741896Y-9687508D02*
X13760944Y-9658936D01*
X13760944Y-9658936D02*
X13770468Y-9649412D01*
X13846658Y-9744650D02*
X13846658Y-9877984D01*
X13846658Y-9763698D02*
X13856182Y-9754174D01*
X13856182Y-9754174D02*
X13875230Y-9744650D01*
X13875230Y-9744650D02*
X13903801Y-9744650D01*
X13903801Y-9744650D02*
X13922849Y-9754174D01*
X13922849Y-9754174D02*
X13932372Y-9773222D01*
X13932372Y-9773222D02*
X13932372Y-9877984D01*
X14056182Y-9877984D02*
X14037134Y-9868460D01*
X14037134Y-9868460D02*
X14027611Y-9858936D01*
X14027611Y-9858936D02*
X14018087Y-9839889D01*
X14018087Y-9839889D02*
X14018087Y-9782746D01*
X14018087Y-9782746D02*
X14027611Y-9763698D01*
X14027611Y-9763698D02*
X14037134Y-9754174D01*
X14037134Y-9754174D02*
X14056182Y-9744650D01*
X14056182Y-9744650D02*
X14084753Y-9744650D01*
X14084753Y-9744650D02*
X14103801Y-9754174D01*
X14103801Y-9754174D02*
X14113325Y-9763698D01*
X14113325Y-9763698D02*
X14122849Y-9782746D01*
X14122849Y-9782746D02*
X14122849Y-9839889D01*
X14122849Y-9839889D02*
X14113325Y-9858936D01*
X14113325Y-9858936D02*
X14103801Y-9868460D01*
X14103801Y-9868460D02*
X14084753Y-9877984D01*
X14084753Y-9877984D02*
X14056182Y-9877984D01*
X14179992Y-9744650D02*
X14256182Y-9744650D01*
X14208563Y-9677984D02*
X14208563Y-9849412D01*
X14208563Y-9849412D02*
X14218087Y-9868460D01*
X14218087Y-9868460D02*
X14237134Y-9877984D01*
X14237134Y-9877984D02*
X14256182Y-9877984D01*
X14475230Y-9744650D02*
X14475230Y-9944650D01*
X14475230Y-9754174D02*
X14494277Y-9744650D01*
X14494277Y-9744650D02*
X14532373Y-9744650D01*
X14532373Y-9744650D02*
X14551420Y-9754174D01*
X14551420Y-9754174D02*
X14560944Y-9763698D01*
X14560944Y-9763698D02*
X14570468Y-9782746D01*
X14570468Y-9782746D02*
X14570468Y-9839889D01*
X14570468Y-9839889D02*
X14560944Y-9858936D01*
X14560944Y-9858936D02*
X14551420Y-9868460D01*
X14551420Y-9868460D02*
X14532373Y-9877984D01*
X14532373Y-9877984D02*
X14494277Y-9877984D01*
X14494277Y-9877984D02*
X14475230Y-9868460D01*
X14684753Y-9877984D02*
X14665706Y-9868460D01*
X14665706Y-9868460D02*
X14656182Y-9849412D01*
X14656182Y-9849412D02*
X14656182Y-9677984D01*
X14846658Y-9877984D02*
X14846658Y-9773222D01*
X14846658Y-9773222D02*
X14837134Y-9754174D01*
X14837134Y-9754174D02*
X14818087Y-9744650D01*
X14818087Y-9744650D02*
X14779992Y-9744650D01*
X14779992Y-9744650D02*
X14760944Y-9754174D01*
X14846658Y-9868460D02*
X14827611Y-9877984D01*
X14827611Y-9877984D02*
X14779992Y-9877984D01*
X14779992Y-9877984D02*
X14760944Y-9868460D01*
X14760944Y-9868460D02*
X14751420Y-9849412D01*
X14751420Y-9849412D02*
X14751420Y-9830365D01*
X14751420Y-9830365D02*
X14760944Y-9811317D01*
X14760944Y-9811317D02*
X14779992Y-9801793D01*
X14779992Y-9801793D02*
X14827611Y-9801793D01*
X14827611Y-9801793D02*
X14846658Y-9792270D01*
X14913325Y-9744650D02*
X14989515Y-9744650D01*
X14941896Y-9677984D02*
X14941896Y-9849412D01*
X14941896Y-9849412D02*
X14951420Y-9868460D01*
X14951420Y-9868460D02*
X14970468Y-9877984D01*
X14970468Y-9877984D02*
X14989515Y-9877984D01*
X15132373Y-9868460D02*
X15113325Y-9877984D01*
X15113325Y-9877984D02*
X15075230Y-9877984D01*
X15075230Y-9877984D02*
X15056182Y-9868460D01*
X15056182Y-9868460D02*
X15046658Y-9849412D01*
X15046658Y-9849412D02*
X15046658Y-9773222D01*
X15046658Y-9773222D02*
X15056182Y-9754174D01*
X15056182Y-9754174D02*
X15075230Y-9744650D01*
X15075230Y-9744650D02*
X15113325Y-9744650D01*
X15113325Y-9744650D02*
X15132373Y-9754174D01*
X15132373Y-9754174D02*
X15141896Y-9773222D01*
X15141896Y-9773222D02*
X15141896Y-9792270D01*
X15141896Y-9792270D02*
X15046658Y-9811317D01*
X15313325Y-9877984D02*
X15313325Y-9677984D01*
X15313325Y-9868460D02*
X15294277Y-9877984D01*
X15294277Y-9877984D02*
X15256182Y-9877984D01*
X15256182Y-9877984D02*
X15237134Y-9868460D01*
X15237134Y-9868460D02*
X15227611Y-9858936D01*
X15227611Y-9858936D02*
X15218087Y-9839889D01*
X15218087Y-9839889D02*
X15218087Y-9782746D01*
X15218087Y-9782746D02*
X15227611Y-9763698D01*
X15227611Y-9763698D02*
X15237134Y-9754174D01*
X15237134Y-9754174D02*
X15256182Y-9744650D01*
X15256182Y-9744650D02*
X15294277Y-9744650D01*
X15294277Y-9744650D02*
X15313325Y-9754174D01*
X15389515Y-9954174D02*
X15399039Y-9944650D01*
X15399039Y-9944650D02*
X15418087Y-9916079D01*
X15418087Y-9916079D02*
X15427611Y-9897031D01*
X15427611Y-9897031D02*
X15437134Y-9868460D01*
X15437134Y-9868460D02*
X15446658Y-9820841D01*
X15446658Y-9820841D02*
X15446658Y-9782746D01*
X15446658Y-9782746D02*
X15437134Y-9735127D01*
X15437134Y-9735127D02*
X15427611Y-9706555D01*
X15427611Y-9706555D02*
X15418087Y-9687508D01*
X15418087Y-9687508D02*
X15399039Y-9658936D01*
X15399039Y-9658936D02*
X15389515Y-9649412D01*
M02*
