G04 #@! TF.GenerationSoftware,KiCad,Pcbnew,8.0.8*
G04 #@! TF.CreationDate,2025-05-02T07:15:15-04:00*
G04 #@! TF.ProjectId,DevBoard1,44657642-6f61-4726-9431-2e6b69636164,rev?*
G04 #@! TF.SameCoordinates,Original*
G04 #@! TF.FileFunction,Legend,Top*
G04 #@! TF.FilePolarity,Positive*
%FSLAX46Y46*%
G04 Gerber Fmt 4.6, Leading zero omitted, Abs format (unit mm)*
G04 Created by KiCad (PCBNEW 8.0.8) date 2025-05-02 07:15:15*
%MOMM*%
%LPD*%
G01*
G04 APERTURE LIST*
G04 Aperture macros list*
%AMRoundRect*
0 Rectangle with rounded corners*
0 $1 Rounding radius*
0 $2 $3 $4 $5 $6 $7 $8 $9 X,Y pos of 4 corners*
0 Add a 4 corners polygon primitive as box body*
4,1,4,$2,$3,$4,$5,$6,$7,$8,$9,$2,$3,0*
0 Add four circle primitives for the rounded corners*
1,1,$1+$1,$2,$3*
1,1,$1+$1,$4,$5*
1,1,$1+$1,$6,$7*
1,1,$1+$1,$8,$9*
0 Add four rect primitives between the rounded corners*
20,1,$1+$1,$2,$3,$4,$5,0*
20,1,$1+$1,$4,$5,$6,$7,0*
20,1,$1+$1,$6,$7,$8,$9,0*
20,1,$1+$1,$8,$9,$2,$3,0*%
%AMFreePoly0*
4,1,14,0.334644,0.085355,0.385355,0.034644,0.400000,-0.000711,0.400000,-0.050000,0.385355,-0.085355,0.350000,-0.100000,-0.350000,-0.100000,-0.385355,-0.085355,-0.400000,-0.050000,-0.400000,0.050000,-0.385355,0.085355,-0.350000,0.100000,0.299289,0.100000,0.334644,0.085355,0.334644,0.085355,$1*%
%AMFreePoly1*
4,1,14,0.385355,0.085355,0.400000,0.050000,0.400000,0.000711,0.385355,-0.034644,0.334644,-0.085355,0.299289,-0.100000,-0.350000,-0.100000,-0.385355,-0.085355,-0.400000,-0.050000,-0.400000,0.050000,-0.385355,0.085355,-0.350000,0.100000,0.350000,0.100000,0.385355,0.085355,0.385355,0.085355,$1*%
%AMFreePoly2*
4,1,14,0.085355,0.385355,0.100000,0.350000,0.100000,-0.350000,0.085355,-0.385355,0.050000,-0.400000,-0.050000,-0.400000,-0.085355,-0.385355,-0.100000,-0.350000,-0.100000,0.299289,-0.085355,0.334644,-0.034644,0.385355,0.000711,0.400000,0.050000,0.400000,0.085355,0.385355,0.085355,0.385355,$1*%
%AMFreePoly3*
4,1,14,0.034644,0.385355,0.085355,0.334644,0.100000,0.299289,0.100000,-0.350000,0.085355,-0.385355,0.050000,-0.400000,-0.050000,-0.400000,-0.085355,-0.385355,-0.100000,-0.350000,-0.100000,0.350000,-0.085355,0.385355,-0.050000,0.400000,-0.000711,0.400000,0.034644,0.385355,0.034644,0.385355,$1*%
%AMFreePoly4*
4,1,14,0.385355,0.085355,0.400000,0.050000,0.400000,-0.050000,0.385355,-0.085355,0.350000,-0.100000,-0.299289,-0.100000,-0.334644,-0.085355,-0.385355,-0.034644,-0.400000,0.000711,-0.400000,0.050000,-0.385355,0.085355,-0.350000,0.100000,0.350000,0.100000,0.385355,0.085355,0.385355,0.085355,$1*%
%AMFreePoly5*
4,1,14,0.385355,0.085355,0.400000,0.050000,0.400000,-0.050000,0.385355,-0.085355,0.350000,-0.100000,-0.350000,-0.100000,-0.385355,-0.085355,-0.400000,-0.050000,-0.400000,-0.000711,-0.385355,0.034644,-0.334644,0.085355,-0.299289,0.100000,0.350000,0.100000,0.385355,0.085355,0.385355,0.085355,$1*%
%AMFreePoly6*
4,1,14,0.085355,0.385355,0.100000,0.350000,0.100000,-0.299289,0.085355,-0.334644,0.034644,-0.385355,-0.000711,-0.400000,-0.050000,-0.400000,-0.085355,-0.385355,-0.100000,-0.350000,-0.100000,0.350000,-0.085355,0.385355,-0.050000,0.400000,0.050000,0.400000,0.085355,0.385355,0.085355,0.385355,$1*%
%AMFreePoly7*
4,1,14,0.085355,0.385355,0.100000,0.350000,0.100000,-0.350000,0.085355,-0.385355,0.050000,-0.400000,0.000711,-0.400000,-0.034644,-0.385355,-0.085355,-0.334644,-0.100000,-0.299289,-0.100000,0.350000,-0.085355,0.385355,-0.050000,0.400000,0.050000,0.400000,0.085355,0.385355,0.085355,0.385355,$1*%
G04 Aperture macros list end*
%ADD10C,0.100000*%
%ADD11C,0.200000*%
%ADD12C,0.300000*%
%ADD13C,0.120000*%
%ADD14RoundRect,0.200000X0.275000X-0.200000X0.275000X0.200000X-0.275000X0.200000X-0.275000X-0.200000X0*%
%ADD15RoundRect,0.243750X0.456250X-0.243750X0.456250X0.243750X-0.456250X0.243750X-0.456250X-0.243750X0*%
%ADD16RoundRect,0.250000X-0.325000X-1.100000X0.325000X-1.100000X0.325000X1.100000X-0.325000X1.100000X0*%
%ADD17RoundRect,0.140000X0.140000X0.170000X-0.140000X0.170000X-0.140000X-0.170000X0.140000X-0.170000X0*%
%ADD18C,3.250000*%
%ADD19R,1.500000X1.500000*%
%ADD20C,1.500000*%
%ADD21RoundRect,0.140000X-0.140000X-0.170000X0.140000X-0.170000X0.140000X0.170000X-0.140000X0.170000X0*%
%ADD22RoundRect,0.250001X-1.149999X-1.149999X1.149999X-1.149999X1.149999X1.149999X-1.149999X1.149999X0*%
%ADD23C,2.800000*%
%ADD24FreePoly0,270.000000*%
%ADD25RoundRect,0.050000X-0.050000X0.350000X-0.050000X-0.350000X0.050000X-0.350000X0.050000X0.350000X0*%
%ADD26FreePoly1,270.000000*%
%ADD27FreePoly2,270.000000*%
%ADD28RoundRect,0.050000X-0.350000X0.050000X-0.350000X-0.050000X0.350000X-0.050000X0.350000X0.050000X0*%
%ADD29FreePoly3,270.000000*%
%ADD30FreePoly4,270.000000*%
%ADD31FreePoly5,270.000000*%
%ADD32FreePoly6,270.000000*%
%ADD33FreePoly7,270.000000*%
%ADD34R,1.700000X1.700000*%
%ADD35O,1.700000X1.700000*%
%ADD36R,0.600000X1.100000*%
%ADD37RoundRect,0.135000X-0.135000X-0.185000X0.135000X-0.185000X0.135000X0.185000X-0.135000X0.185000X0*%
%ADD38RoundRect,0.150000X0.150000X-0.825000X0.150000X0.825000X-0.150000X0.825000X-0.150000X-0.825000X0*%
%ADD39R,2.160000X1.120000*%
G04 APERTURE END LIST*
D10*
X100838000Y-84836000D02*
X102870000Y-84836000D01*
X102870000Y-72390000D02*
X100838000Y-72390000D01*
X100838000Y-72390000D02*
X100838000Y-84836000D01*
D11*
X102712742Y-75662136D02*
X102712742Y-76347850D01*
X102712742Y-76004993D02*
X101512742Y-76004993D01*
X101512742Y-76004993D02*
X101684171Y-76119279D01*
X101684171Y-76119279D02*
X101798457Y-76233564D01*
X101798457Y-76233564D02*
X101855600Y-76347850D01*
X101509292Y-70759600D02*
X102423578Y-70759600D01*
X101966435Y-71216742D02*
X101966435Y-70302457D01*
D12*
X104682400Y-68408060D02*
X104739542Y-68236632D01*
X104739542Y-68236632D02*
X104739542Y-67950917D01*
X104739542Y-67950917D02*
X104682400Y-67836632D01*
X104682400Y-67836632D02*
X104625257Y-67779489D01*
X104625257Y-67779489D02*
X104510971Y-67722346D01*
X104510971Y-67722346D02*
X104396685Y-67722346D01*
X104396685Y-67722346D02*
X104282400Y-67779489D01*
X104282400Y-67779489D02*
X104225257Y-67836632D01*
X104225257Y-67836632D02*
X104168114Y-67950917D01*
X104168114Y-67950917D02*
X104110971Y-68179489D01*
X104110971Y-68179489D02*
X104053828Y-68293774D01*
X104053828Y-68293774D02*
X103996685Y-68350917D01*
X103996685Y-68350917D02*
X103882400Y-68408060D01*
X103882400Y-68408060D02*
X103768114Y-68408060D01*
X103768114Y-68408060D02*
X103653828Y-68350917D01*
X103653828Y-68350917D02*
X103596685Y-68293774D01*
X103596685Y-68293774D02*
X103539542Y-68179489D01*
X103539542Y-68179489D02*
X103539542Y-67893774D01*
X103539542Y-67893774D02*
X103596685Y-67722346D01*
X104739542Y-67208060D02*
X103539542Y-67208060D01*
X103539542Y-67208060D02*
X103539542Y-66922346D01*
X103539542Y-66922346D02*
X103596685Y-66750917D01*
X103596685Y-66750917D02*
X103710971Y-66636632D01*
X103710971Y-66636632D02*
X103825257Y-66579489D01*
X103825257Y-66579489D02*
X104053828Y-66522346D01*
X104053828Y-66522346D02*
X104225257Y-66522346D01*
X104225257Y-66522346D02*
X104453828Y-66579489D01*
X104453828Y-66579489D02*
X104568114Y-66636632D01*
X104568114Y-66636632D02*
X104682400Y-66750917D01*
X104682400Y-66750917D02*
X104739542Y-66922346D01*
X104739542Y-66922346D02*
X104739542Y-67208060D01*
X104739542Y-66008060D02*
X103539542Y-66008060D01*
X104110971Y-66008060D02*
X104110971Y-65322346D01*
X104739542Y-65322346D02*
X103539542Y-65322346D01*
X104739542Y-63150917D02*
X104168114Y-63550917D01*
X104739542Y-63836631D02*
X103539542Y-63836631D01*
X103539542Y-63836631D02*
X103539542Y-63379488D01*
X103539542Y-63379488D02*
X103596685Y-63265203D01*
X103596685Y-63265203D02*
X103653828Y-63208060D01*
X103653828Y-63208060D02*
X103768114Y-63150917D01*
X103768114Y-63150917D02*
X103939542Y-63150917D01*
X103939542Y-63150917D02*
X104053828Y-63208060D01*
X104053828Y-63208060D02*
X104110971Y-63265203D01*
X104110971Y-63265203D02*
X104168114Y-63379488D01*
X104168114Y-63379488D02*
X104168114Y-63836631D01*
X104739542Y-61665203D02*
X104739542Y-61722346D01*
X104739542Y-61722346D02*
X104682400Y-61836631D01*
X104682400Y-61836631D02*
X104510971Y-62008060D01*
X104510971Y-62008060D02*
X104168114Y-62293774D01*
X104168114Y-62293774D02*
X103996685Y-62408060D01*
X103996685Y-62408060D02*
X103825257Y-62465203D01*
X103825257Y-62465203D02*
X103710971Y-62465203D01*
X103710971Y-62465203D02*
X103596685Y-62408060D01*
X103596685Y-62408060D02*
X103539542Y-62293774D01*
X103539542Y-62293774D02*
X103539542Y-62236631D01*
X103539542Y-62236631D02*
X103596685Y-62122346D01*
X103596685Y-62122346D02*
X103710971Y-62065203D01*
X103710971Y-62065203D02*
X103768114Y-62065203D01*
X103768114Y-62065203D02*
X103882400Y-62122346D01*
X103882400Y-62122346D02*
X103939542Y-62179488D01*
X103939542Y-62179488D02*
X104168114Y-62522346D01*
X104168114Y-62522346D02*
X104225257Y-62579488D01*
X104225257Y-62579488D02*
X104339542Y-62636631D01*
X104339542Y-62636631D02*
X104510971Y-62636631D01*
X104510971Y-62636631D02*
X104625257Y-62579488D01*
X104625257Y-62579488D02*
X104682400Y-62522346D01*
X104682400Y-62522346D02*
X104739542Y-62408060D01*
X104739542Y-62408060D02*
X104739542Y-62236631D01*
X104739542Y-62236631D02*
X104682400Y-62122346D01*
X104682400Y-62122346D02*
X104625257Y-62065203D01*
X104625257Y-62065203D02*
X104396685Y-61893774D01*
X104396685Y-61893774D02*
X104225257Y-61836631D01*
X104225257Y-61836631D02*
X104110971Y-61836631D01*
X104739542Y-61150917D02*
X103539542Y-61150917D01*
X103539542Y-61150917D02*
X103539542Y-60865203D01*
X103539542Y-60865203D02*
X103596685Y-60693774D01*
X103596685Y-60693774D02*
X103710971Y-60579489D01*
X103710971Y-60579489D02*
X103825257Y-60522346D01*
X103825257Y-60522346D02*
X104053828Y-60465203D01*
X104053828Y-60465203D02*
X104225257Y-60465203D01*
X104225257Y-60465203D02*
X104453828Y-60522346D01*
X104453828Y-60522346D02*
X104568114Y-60579489D01*
X104568114Y-60579489D02*
X104682400Y-60693774D01*
X104682400Y-60693774D02*
X104739542Y-60865203D01*
X104739542Y-60865203D02*
X104739542Y-61150917D01*
X103539542Y-59208060D02*
X104739542Y-58808060D01*
X104739542Y-58808060D02*
X103539542Y-58408060D01*
X103539542Y-57779489D02*
X103539542Y-57665203D01*
X103539542Y-57665203D02*
X103596685Y-57550917D01*
X103596685Y-57550917D02*
X103653828Y-57493775D01*
X103653828Y-57493775D02*
X103768114Y-57436632D01*
X103768114Y-57436632D02*
X103996685Y-57379489D01*
X103996685Y-57379489D02*
X104282400Y-57379489D01*
X104282400Y-57379489D02*
X104510971Y-57436632D01*
X104510971Y-57436632D02*
X104625257Y-57493775D01*
X104625257Y-57493775D02*
X104682400Y-57550917D01*
X104682400Y-57550917D02*
X104739542Y-57665203D01*
X104739542Y-57665203D02*
X104739542Y-57779489D01*
X104739542Y-57779489D02*
X104682400Y-57893775D01*
X104682400Y-57893775D02*
X104625257Y-57950917D01*
X104625257Y-57950917D02*
X104510971Y-58008060D01*
X104510971Y-58008060D02*
X104282400Y-58065203D01*
X104282400Y-58065203D02*
X103996685Y-58065203D01*
X103996685Y-58065203D02*
X103768114Y-58008060D01*
X103768114Y-58008060D02*
X103653828Y-57950917D01*
X103653828Y-57950917D02*
X103596685Y-57893775D01*
X103596685Y-57893775D02*
X103539542Y-57779489D01*
X104625257Y-56865203D02*
X104682400Y-56808060D01*
X104682400Y-56808060D02*
X104739542Y-56865203D01*
X104739542Y-56865203D02*
X104682400Y-56922346D01*
X104682400Y-56922346D02*
X104625257Y-56865203D01*
X104625257Y-56865203D02*
X104739542Y-56865203D01*
X104739542Y-55665203D02*
X104739542Y-56350917D01*
X104739542Y-56008060D02*
X103539542Y-56008060D01*
X103539542Y-56008060D02*
X103710971Y-56122346D01*
X103710971Y-56122346D02*
X103825257Y-56236631D01*
X103825257Y-56236631D02*
X103882400Y-56350917D01*
D11*
X101512742Y-78944993D02*
X101512742Y-78202136D01*
X101512742Y-78202136D02*
X101969885Y-78602136D01*
X101969885Y-78602136D02*
X101969885Y-78430707D01*
X101969885Y-78430707D02*
X102027028Y-78316422D01*
X102027028Y-78316422D02*
X102084171Y-78259279D01*
X102084171Y-78259279D02*
X102198457Y-78202136D01*
X102198457Y-78202136D02*
X102484171Y-78202136D01*
X102484171Y-78202136D02*
X102598457Y-78259279D01*
X102598457Y-78259279D02*
X102655600Y-78316422D01*
X102655600Y-78316422D02*
X102712742Y-78430707D01*
X102712742Y-78430707D02*
X102712742Y-78773564D01*
X102712742Y-78773564D02*
X102655600Y-78887850D01*
X102655600Y-78887850D02*
X102598457Y-78944993D01*
X101512742Y-83339279D02*
X101512742Y-83910707D01*
X101512742Y-83910707D02*
X102084171Y-83967850D01*
X102084171Y-83967850D02*
X102027028Y-83910707D01*
X102027028Y-83910707D02*
X101969885Y-83796422D01*
X101969885Y-83796422D02*
X101969885Y-83510707D01*
X101969885Y-83510707D02*
X102027028Y-83396422D01*
X102027028Y-83396422D02*
X102084171Y-83339279D01*
X102084171Y-83339279D02*
X102198457Y-83282136D01*
X102198457Y-83282136D02*
X102484171Y-83282136D01*
X102484171Y-83282136D02*
X102598457Y-83339279D01*
X102598457Y-83339279D02*
X102655600Y-83396422D01*
X102655600Y-83396422D02*
X102712742Y-83510707D01*
X102712742Y-83510707D02*
X102712742Y-83796422D01*
X102712742Y-83796422D02*
X102655600Y-83910707D01*
X102655600Y-83910707D02*
X102598457Y-83967850D01*
X91527257Y-83989578D02*
X91527257Y-83761006D01*
X91527257Y-83761006D02*
X91470114Y-83646720D01*
X91470114Y-83646720D02*
X91412971Y-83589578D01*
X91412971Y-83589578D02*
X91241542Y-83475292D01*
X91241542Y-83475292D02*
X91012971Y-83418149D01*
X91012971Y-83418149D02*
X90555828Y-83418149D01*
X90555828Y-83418149D02*
X90441542Y-83475292D01*
X90441542Y-83475292D02*
X90384400Y-83532435D01*
X90384400Y-83532435D02*
X90327257Y-83646720D01*
X90327257Y-83646720D02*
X90327257Y-83875292D01*
X90327257Y-83875292D02*
X90384400Y-83989578D01*
X90384400Y-83989578D02*
X90441542Y-84046720D01*
X90441542Y-84046720D02*
X90555828Y-84103863D01*
X90555828Y-84103863D02*
X90841542Y-84103863D01*
X90841542Y-84103863D02*
X90955828Y-84046720D01*
X90955828Y-84046720D02*
X91012971Y-83989578D01*
X91012971Y-83989578D02*
X91070114Y-83875292D01*
X91070114Y-83875292D02*
X91070114Y-83646720D01*
X91070114Y-83646720D02*
X91012971Y-83532435D01*
X91012971Y-83532435D02*
X90955828Y-83475292D01*
X90955828Y-83475292D02*
X90841542Y-83418149D01*
X102598457Y-86526993D02*
X102655600Y-86584136D01*
X102655600Y-86584136D02*
X102712742Y-86755564D01*
X102712742Y-86755564D02*
X102712742Y-86869850D01*
X102712742Y-86869850D02*
X102655600Y-87041279D01*
X102655600Y-87041279D02*
X102541314Y-87155564D01*
X102541314Y-87155564D02*
X102427028Y-87212707D01*
X102427028Y-87212707D02*
X102198457Y-87269850D01*
X102198457Y-87269850D02*
X102027028Y-87269850D01*
X102027028Y-87269850D02*
X101798457Y-87212707D01*
X101798457Y-87212707D02*
X101684171Y-87155564D01*
X101684171Y-87155564D02*
X101569885Y-87041279D01*
X101569885Y-87041279D02*
X101512742Y-86869850D01*
X101512742Y-86869850D02*
X101512742Y-86755564D01*
X101512742Y-86755564D02*
X101569885Y-86584136D01*
X101569885Y-86584136D02*
X101627028Y-86526993D01*
X101512742Y-85784136D02*
X101512742Y-85669850D01*
X101512742Y-85669850D02*
X101569885Y-85555564D01*
X101569885Y-85555564D02*
X101627028Y-85498422D01*
X101627028Y-85498422D02*
X101741314Y-85441279D01*
X101741314Y-85441279D02*
X101969885Y-85384136D01*
X101969885Y-85384136D02*
X102255600Y-85384136D01*
X102255600Y-85384136D02*
X102484171Y-85441279D01*
X102484171Y-85441279D02*
X102598457Y-85498422D01*
X102598457Y-85498422D02*
X102655600Y-85555564D01*
X102655600Y-85555564D02*
X102712742Y-85669850D01*
X102712742Y-85669850D02*
X102712742Y-85784136D01*
X102712742Y-85784136D02*
X102655600Y-85898422D01*
X102655600Y-85898422D02*
X102598457Y-85955564D01*
X102598457Y-85955564D02*
X102484171Y-86012707D01*
X102484171Y-86012707D02*
X102255600Y-86069850D01*
X102255600Y-86069850D02*
X101969885Y-86069850D01*
X101969885Y-86069850D02*
X101741314Y-86012707D01*
X101741314Y-86012707D02*
X101627028Y-85955564D01*
X101627028Y-85955564D02*
X101569885Y-85898422D01*
X101569885Y-85898422D02*
X101512742Y-85784136D01*
X89571292Y-69489600D02*
X90485578Y-69489600D01*
X90028435Y-69946742D02*
X90028435Y-69032457D01*
X90670114Y-75290149D02*
X90670114Y-75861578D01*
X90327257Y-75175863D02*
X91527257Y-75575863D01*
X91527257Y-75575863D02*
X90327257Y-75975863D01*
X91527257Y-76261577D02*
X91527257Y-77004434D01*
X91527257Y-77004434D02*
X91070114Y-76604434D01*
X91070114Y-76604434D02*
X91070114Y-76775863D01*
X91070114Y-76775863D02*
X91012971Y-76890149D01*
X91012971Y-76890149D02*
X90955828Y-76947291D01*
X90955828Y-76947291D02*
X90841542Y-77004434D01*
X90841542Y-77004434D02*
X90555828Y-77004434D01*
X90555828Y-77004434D02*
X90441542Y-76947291D01*
X90441542Y-76947291D02*
X90384400Y-76890149D01*
X90384400Y-76890149D02*
X90327257Y-76775863D01*
X90327257Y-76775863D02*
X90327257Y-76433006D01*
X90327257Y-76433006D02*
X90384400Y-76318720D01*
X90384400Y-76318720D02*
X90441542Y-76261577D01*
X91127257Y-78909578D02*
X90327257Y-78909578D01*
X91584400Y-78623863D02*
X90727257Y-78338149D01*
X90727257Y-78338149D02*
X90727257Y-79081006D01*
X101912742Y-80856422D02*
X102712742Y-80856422D01*
X101455600Y-81142136D02*
X102312742Y-81427850D01*
X102312742Y-81427850D02*
X102312742Y-80684993D01*
X102084171Y-74112707D02*
X102141314Y-73941279D01*
X102141314Y-73941279D02*
X102198457Y-73884136D01*
X102198457Y-73884136D02*
X102312742Y-73826993D01*
X102312742Y-73826993D02*
X102484171Y-73826993D01*
X102484171Y-73826993D02*
X102598457Y-73884136D01*
X102598457Y-73884136D02*
X102655600Y-73941279D01*
X102655600Y-73941279D02*
X102712742Y-74055564D01*
X102712742Y-74055564D02*
X102712742Y-74512707D01*
X102712742Y-74512707D02*
X101512742Y-74512707D01*
X101512742Y-74512707D02*
X101512742Y-74112707D01*
X101512742Y-74112707D02*
X101569885Y-73998422D01*
X101569885Y-73998422D02*
X101627028Y-73941279D01*
X101627028Y-73941279D02*
X101741314Y-73884136D01*
X101741314Y-73884136D02*
X101855600Y-73884136D01*
X101855600Y-73884136D02*
X101969885Y-73941279D01*
X101969885Y-73941279D02*
X102027028Y-73998422D01*
X102027028Y-73998422D02*
X102084171Y-74112707D01*
X102084171Y-74112707D02*
X102084171Y-74512707D01*
X101512742Y-73084136D02*
X101512742Y-72969850D01*
X101512742Y-72969850D02*
X101569885Y-72855564D01*
X101569885Y-72855564D02*
X101627028Y-72798422D01*
X101627028Y-72798422D02*
X101741314Y-72741279D01*
X101741314Y-72741279D02*
X101969885Y-72684136D01*
X101969885Y-72684136D02*
X102255600Y-72684136D01*
X102255600Y-72684136D02*
X102484171Y-72741279D01*
X102484171Y-72741279D02*
X102598457Y-72798422D01*
X102598457Y-72798422D02*
X102655600Y-72855564D01*
X102655600Y-72855564D02*
X102712742Y-72969850D01*
X102712742Y-72969850D02*
X102712742Y-73084136D01*
X102712742Y-73084136D02*
X102655600Y-73198422D01*
X102655600Y-73198422D02*
X102598457Y-73255564D01*
X102598457Y-73255564D02*
X102484171Y-73312707D01*
X102484171Y-73312707D02*
X102255600Y-73369850D01*
X102255600Y-73369850D02*
X101969885Y-73369850D01*
X101969885Y-73369850D02*
X101741314Y-73312707D01*
X101741314Y-73312707D02*
X101627028Y-73255564D01*
X101627028Y-73255564D02*
X101569885Y-73198422D01*
X101569885Y-73198422D02*
X101512742Y-73084136D01*
X91527257Y-81506720D02*
X91527257Y-80935292D01*
X91527257Y-80935292D02*
X90955828Y-80878149D01*
X90955828Y-80878149D02*
X91012971Y-80935292D01*
X91012971Y-80935292D02*
X91070114Y-81049578D01*
X91070114Y-81049578D02*
X91070114Y-81335292D01*
X91070114Y-81335292D02*
X91012971Y-81449578D01*
X91012971Y-81449578D02*
X90955828Y-81506720D01*
X90955828Y-81506720D02*
X90841542Y-81563863D01*
X90841542Y-81563863D02*
X90555828Y-81563863D01*
X90555828Y-81563863D02*
X90441542Y-81506720D01*
X90441542Y-81506720D02*
X90384400Y-81449578D01*
X90384400Y-81449578D02*
X90327257Y-81335292D01*
X90327257Y-81335292D02*
X90327257Y-81049578D01*
X90327257Y-81049578D02*
X90384400Y-80935292D01*
X90384400Y-80935292D02*
X90441542Y-80878149D01*
X91527257Y-85901006D02*
X91527257Y-86701006D01*
X91527257Y-86701006D02*
X90327257Y-86186720D01*
D13*
X93711500Y-74913258D02*
X93711500Y-74438742D01*
X94756500Y-74913258D02*
X94756500Y-74438742D01*
X89839748Y-65823000D02*
X91262252Y-65823000D01*
X89839748Y-68543000D02*
X91262252Y-68543000D01*
D11*
X101812000Y-58320000D02*
X102812000Y-57320000D01*
X102812000Y-57320000D02*
X102812000Y-59320000D01*
X102812000Y-59320000D02*
X101812000Y-58320000D01*
X90212000Y-45429000D02*
X101812000Y-45429000D01*
X101812000Y-62029000D01*
X90212000Y-62029000D01*
X90212000Y-45429000D01*
D13*
X95639800Y-83156600D02*
X96089800Y-83156600D01*
X95639800Y-83606600D02*
X95639800Y-83156600D01*
X95639800Y-85926600D02*
X95639800Y-86376600D01*
X95639800Y-86376600D02*
X96089800Y-86376600D01*
X98409800Y-83156600D02*
X98619800Y-83156600D01*
X98859800Y-83606600D02*
X98859800Y-83456600D01*
X98859800Y-85926600D02*
X98859800Y-86376600D01*
X98859800Y-86376600D02*
X98409800Y-86376600D01*
X99189800Y-83396600D02*
X98859800Y-83156600D01*
X99189800Y-82916600D01*
X99189800Y-83396600D01*
G36*
X99189800Y-83396600D02*
G01*
X98859800Y-83156600D01*
X99189800Y-82916600D01*
X99189800Y-83396600D01*
G37*
X92548400Y-80628800D02*
X92548400Y-79298800D01*
X93878400Y-80628800D02*
X92548400Y-80628800D01*
X95148400Y-77968800D02*
X100288400Y-77968800D01*
X95148400Y-80628800D02*
X95148400Y-77968800D01*
X95148400Y-80628800D02*
X100288400Y-80628800D01*
X100288400Y-80628800D02*
X100288400Y-77968800D01*
X92187500Y-74913258D02*
X92187500Y-74438742D01*
X93232500Y-74913258D02*
X93232500Y-74438742D01*
X95611000Y-72833000D02*
X95611000Y-70883000D01*
X95611000Y-72833000D02*
X95611000Y-74783000D01*
X100731000Y-72833000D02*
X100731000Y-70883000D01*
X100731000Y-72833000D02*
X100731000Y-74783000D01*
X95706000Y-75533000D02*
X95376000Y-75773000D01*
X95376000Y-75293000D01*
X95706000Y-75533000D01*
G36*
X95706000Y-75533000D02*
G01*
X95376000Y-75773000D01*
X95376000Y-75293000D01*
X95706000Y-75533000D01*
G37*
X94267000Y-63436000D02*
X94267000Y-64819000D01*
X94267000Y-63436000D02*
X95650000Y-63436000D01*
X94507000Y-63676000D02*
X94507000Y-64986000D01*
X94507000Y-63676000D02*
X101327000Y-63676000D01*
X94507000Y-66586000D02*
X94507000Y-67896000D01*
X94507000Y-67896000D02*
X101327000Y-67896000D01*
X96107000Y-65151000D02*
X96107000Y-66421000D01*
X96107000Y-65271000D02*
X97313667Y-65271000D01*
X96107000Y-65391000D02*
X97313667Y-65391000D01*
X96107000Y-65511000D02*
X97313667Y-65511000D01*
X96107000Y-65631000D02*
X97313667Y-65631000D01*
X96107000Y-65751000D02*
X97313667Y-65751000D01*
X96107000Y-65871000D02*
X97313667Y-65871000D01*
X96107000Y-65991000D02*
X97313667Y-65991000D01*
X96107000Y-66111000D02*
X97313667Y-66111000D01*
X96107000Y-66231000D02*
X97313667Y-66231000D01*
X96107000Y-66351000D02*
X97313667Y-66351000D01*
X96107000Y-66421000D02*
X99727000Y-66421000D01*
X97313667Y-65151000D02*
X97313667Y-66421000D01*
X99727000Y-65151000D02*
X96107000Y-65151000D01*
X99727000Y-66421000D02*
X99727000Y-65151000D01*
X101327000Y-63676000D02*
X101327000Y-64986000D01*
X101327000Y-66586000D02*
X101327000Y-67896000D01*
%LPC*%
D14*
X94234000Y-75501000D03*
X94234000Y-73851000D03*
D15*
X93980000Y-72311500D03*
X93980000Y-70436500D03*
D16*
X89076000Y-67183000D03*
X92026000Y-67183000D03*
D17*
X94488000Y-69088000D03*
X93528000Y-69088000D03*
D18*
X92202000Y-52070000D03*
X99822000Y-52070000D03*
D19*
X97922000Y-58420000D03*
D20*
X96652000Y-60960000D03*
X95382000Y-58420000D03*
X94112000Y-60960000D03*
D21*
X96068000Y-81788000D03*
X97028000Y-81788000D03*
D22*
X93704400Y-47752000D03*
D23*
X98704400Y-47752000D03*
D24*
X98049800Y-83316600D03*
D25*
X97649800Y-83316600D03*
X97249800Y-83316600D03*
X96849800Y-83316600D03*
D26*
X96449800Y-83316600D03*
D27*
X95799800Y-83966600D03*
D28*
X95799800Y-84366600D03*
X95799800Y-84766600D03*
X95799800Y-85166600D03*
D29*
X95799800Y-85566600D03*
D30*
X96449800Y-86216600D03*
D25*
X96849800Y-86216600D03*
X97249800Y-86216600D03*
X97649800Y-86216600D03*
D31*
X98049800Y-86216600D03*
D32*
X98699800Y-85566600D03*
D28*
X98699800Y-85166600D03*
X98699800Y-84766600D03*
X98699800Y-84366600D03*
D33*
X98699800Y-83966600D03*
D34*
X97249800Y-84766600D03*
X93878400Y-79298800D03*
D35*
X96418400Y-79298800D03*
X98958400Y-79298800D03*
D14*
X92710000Y-75501000D03*
X92710000Y-73851000D03*
D34*
X88900000Y-71120000D03*
D35*
X88900000Y-73660000D03*
X88900000Y-76200000D03*
X88900000Y-78740000D03*
X88900000Y-81280000D03*
X88900000Y-83820000D03*
X88900000Y-86360000D03*
X88900000Y-88900000D03*
X104140000Y-88900000D03*
X104140000Y-86360000D03*
X104140000Y-83820000D03*
X104140000Y-81280000D03*
X104140000Y-78740000D03*
X104140000Y-76200000D03*
X104140000Y-73660000D03*
X104140000Y-71120000D03*
D36*
X97372400Y-88780300D03*
X95972400Y-88780300D03*
D37*
X98933000Y-62738000D03*
X99953000Y-62738000D03*
D17*
X94813000Y-89154000D03*
X93853000Y-89154000D03*
D38*
X96266000Y-75308000D03*
X97536000Y-75308000D03*
X98806000Y-75308000D03*
X100076000Y-75308000D03*
X100076000Y-70358000D03*
X98806000Y-70358000D03*
X97536000Y-70358000D03*
X96266000Y-70358000D03*
D15*
X91948000Y-72311500D03*
X91948000Y-70436500D03*
D39*
X94552000Y-65786000D03*
X101282000Y-65786000D03*
D21*
X98580000Y-89154000D03*
X99540000Y-89154000D03*
%LPD*%
M02*
