G04 #@! TF.GenerationSoftware,KiCad,Pcbnew,8.0.8*
G04 #@! TF.CreationDate,2025-05-02T07:15:14-04:00*
G04 #@! TF.ProjectId,DevBoard1,44657642-6f61-4726-9431-2e6b69636164,rev?*
G04 #@! TF.SameCoordinates,Original*
G04 #@! TF.FileFunction,Copper,L1,Top*
G04 #@! TF.FilePolarity,Positive*
%FSLAX46Y46*%
G04 Gerber Fmt 4.6, Leading zero omitted, Abs format (unit mm)*
G04 Created by KiCad (PCBNEW 8.0.8) date 2025-05-02 07:15:14*
%MOMM*%
%LPD*%
G01*
G04 APERTURE LIST*
G04 Aperture macros list*
%AMRoundRect*
0 Rectangle with rounded corners*
0 $1 Rounding radius*
0 $2 $3 $4 $5 $6 $7 $8 $9 X,Y pos of 4 corners*
0 Add a 4 corners polygon primitive as box body*
4,1,4,$2,$3,$4,$5,$6,$7,$8,$9,$2,$3,0*
0 Add four circle primitives for the rounded corners*
1,1,$1+$1,$2,$3*
1,1,$1+$1,$4,$5*
1,1,$1+$1,$6,$7*
1,1,$1+$1,$8,$9*
0 Add four rect primitives between the rounded corners*
20,1,$1+$1,$2,$3,$4,$5,0*
20,1,$1+$1,$4,$5,$6,$7,0*
20,1,$1+$1,$6,$7,$8,$9,0*
20,1,$1+$1,$8,$9,$2,$3,0*%
%AMFreePoly0*
4,1,14,0.334644,0.085355,0.385355,0.034644,0.400000,-0.000711,0.400000,-0.050000,0.385355,-0.085355,0.350000,-0.100000,-0.350000,-0.100000,-0.385355,-0.085355,-0.400000,-0.050000,-0.400000,0.050000,-0.385355,0.085355,-0.350000,0.100000,0.299289,0.100000,0.334644,0.085355,0.334644,0.085355,$1*%
%AMFreePoly1*
4,1,14,0.385355,0.085355,0.400000,0.050000,0.400000,0.000711,0.385355,-0.034644,0.334644,-0.085355,0.299289,-0.100000,-0.350000,-0.100000,-0.385355,-0.085355,-0.400000,-0.050000,-0.400000,0.050000,-0.385355,0.085355,-0.350000,0.100000,0.350000,0.100000,0.385355,0.085355,0.385355,0.085355,$1*%
%AMFreePoly2*
4,1,14,0.085355,0.385355,0.100000,0.350000,0.100000,-0.350000,0.085355,-0.385355,0.050000,-0.400000,-0.050000,-0.400000,-0.085355,-0.385355,-0.100000,-0.350000,-0.100000,0.299289,-0.085355,0.334644,-0.034644,0.385355,0.000711,0.400000,0.050000,0.400000,0.085355,0.385355,0.085355,0.385355,$1*%
%AMFreePoly3*
4,1,14,0.034644,0.385355,0.085355,0.334644,0.100000,0.299289,0.100000,-0.350000,0.085355,-0.385355,0.050000,-0.400000,-0.050000,-0.400000,-0.085355,-0.385355,-0.100000,-0.350000,-0.100000,0.350000,-0.085355,0.385355,-0.050000,0.400000,-0.000711,0.400000,0.034644,0.385355,0.034644,0.385355,$1*%
%AMFreePoly4*
4,1,14,0.385355,0.085355,0.400000,0.050000,0.400000,-0.050000,0.385355,-0.085355,0.350000,-0.100000,-0.299289,-0.100000,-0.334644,-0.085355,-0.385355,-0.034644,-0.400000,0.000711,-0.400000,0.050000,-0.385355,0.085355,-0.350000,0.100000,0.350000,0.100000,0.385355,0.085355,0.385355,0.085355,$1*%
%AMFreePoly5*
4,1,14,0.385355,0.085355,0.400000,0.050000,0.400000,-0.050000,0.385355,-0.085355,0.350000,-0.100000,-0.350000,-0.100000,-0.385355,-0.085355,-0.400000,-0.050000,-0.400000,-0.000711,-0.385355,0.034644,-0.334644,0.085355,-0.299289,0.100000,0.350000,0.100000,0.385355,0.085355,0.385355,0.085355,$1*%
%AMFreePoly6*
4,1,14,0.085355,0.385355,0.100000,0.350000,0.100000,-0.299289,0.085355,-0.334644,0.034644,-0.385355,-0.000711,-0.400000,-0.050000,-0.400000,-0.085355,-0.385355,-0.100000,-0.350000,-0.100000,0.350000,-0.085355,0.385355,-0.050000,0.400000,0.050000,0.400000,0.085355,0.385355,0.085355,0.385355,$1*%
%AMFreePoly7*
4,1,14,0.085355,0.385355,0.100000,0.350000,0.100000,-0.350000,0.085355,-0.385355,0.050000,-0.400000,0.000711,-0.400000,-0.034644,-0.385355,-0.085355,-0.334644,-0.100000,-0.299289,-0.100000,0.350000,-0.085355,0.385355,-0.050000,0.400000,0.050000,0.400000,0.085355,0.385355,0.085355,0.385355,$1*%
G04 Aperture macros list end*
G04 #@! TA.AperFunction,SMDPad,CuDef*
%ADD10RoundRect,0.200000X0.275000X-0.200000X0.275000X0.200000X-0.275000X0.200000X-0.275000X-0.200000X0*%
G04 #@! TD*
G04 #@! TA.AperFunction,SMDPad,CuDef*
%ADD11RoundRect,0.243750X0.456250X-0.243750X0.456250X0.243750X-0.456250X0.243750X-0.456250X-0.243750X0*%
G04 #@! TD*
G04 #@! TA.AperFunction,SMDPad,CuDef*
%ADD12RoundRect,0.250000X-0.325000X-1.100000X0.325000X-1.100000X0.325000X1.100000X-0.325000X1.100000X0*%
G04 #@! TD*
G04 #@! TA.AperFunction,SMDPad,CuDef*
%ADD13RoundRect,0.140000X0.140000X0.170000X-0.140000X0.170000X-0.140000X-0.170000X0.140000X-0.170000X0*%
G04 #@! TD*
G04 #@! TA.AperFunction,ComponentPad*
%ADD14R,1.500000X1.500000*%
G04 #@! TD*
G04 #@! TA.AperFunction,ComponentPad*
%ADD15C,1.500000*%
G04 #@! TD*
G04 #@! TA.AperFunction,SMDPad,CuDef*
%ADD16RoundRect,0.140000X-0.140000X-0.170000X0.140000X-0.170000X0.140000X0.170000X-0.140000X0.170000X0*%
G04 #@! TD*
G04 #@! TA.AperFunction,ComponentPad*
%ADD17RoundRect,0.250001X-1.149999X-1.149999X1.149999X-1.149999X1.149999X1.149999X-1.149999X1.149999X0*%
G04 #@! TD*
G04 #@! TA.AperFunction,ComponentPad*
%ADD18C,2.800000*%
G04 #@! TD*
G04 #@! TA.AperFunction,SMDPad,CuDef*
%ADD19FreePoly0,270.000000*%
G04 #@! TD*
G04 #@! TA.AperFunction,SMDPad,CuDef*
%ADD20RoundRect,0.050000X-0.050000X0.350000X-0.050000X-0.350000X0.050000X-0.350000X0.050000X0.350000X0*%
G04 #@! TD*
G04 #@! TA.AperFunction,SMDPad,CuDef*
%ADD21FreePoly1,270.000000*%
G04 #@! TD*
G04 #@! TA.AperFunction,SMDPad,CuDef*
%ADD22FreePoly2,270.000000*%
G04 #@! TD*
G04 #@! TA.AperFunction,SMDPad,CuDef*
%ADD23RoundRect,0.050000X-0.350000X0.050000X-0.350000X-0.050000X0.350000X-0.050000X0.350000X0.050000X0*%
G04 #@! TD*
G04 #@! TA.AperFunction,SMDPad,CuDef*
%ADD24FreePoly3,270.000000*%
G04 #@! TD*
G04 #@! TA.AperFunction,SMDPad,CuDef*
%ADD25FreePoly4,270.000000*%
G04 #@! TD*
G04 #@! TA.AperFunction,SMDPad,CuDef*
%ADD26FreePoly5,270.000000*%
G04 #@! TD*
G04 #@! TA.AperFunction,SMDPad,CuDef*
%ADD27FreePoly6,270.000000*%
G04 #@! TD*
G04 #@! TA.AperFunction,SMDPad,CuDef*
%ADD28FreePoly7,270.000000*%
G04 #@! TD*
G04 #@! TA.AperFunction,HeatsinkPad*
%ADD29R,1.700000X1.700000*%
G04 #@! TD*
G04 #@! TA.AperFunction,ComponentPad*
%ADD30R,1.700000X1.700000*%
G04 #@! TD*
G04 #@! TA.AperFunction,ComponentPad*
%ADD31O,1.700000X1.700000*%
G04 #@! TD*
G04 #@! TA.AperFunction,SMDPad,CuDef*
%ADD32R,0.600000X1.100000*%
G04 #@! TD*
G04 #@! TA.AperFunction,SMDPad,CuDef*
%ADD33RoundRect,0.135000X-0.135000X-0.185000X0.135000X-0.185000X0.135000X0.185000X-0.135000X0.185000X0*%
G04 #@! TD*
G04 #@! TA.AperFunction,SMDPad,CuDef*
%ADD34RoundRect,0.150000X0.150000X-0.825000X0.150000X0.825000X-0.150000X0.825000X-0.150000X-0.825000X0*%
G04 #@! TD*
G04 #@! TA.AperFunction,SMDPad,CuDef*
%ADD35R,2.160000X1.120000*%
G04 #@! TD*
G04 #@! TA.AperFunction,ViaPad*
%ADD36C,0.600000*%
G04 #@! TD*
G04 #@! TA.AperFunction,Conductor*
%ADD37C,0.250000*%
G04 #@! TD*
G04 #@! TA.AperFunction,Conductor*
%ADD38C,0.200000*%
G04 #@! TD*
G04 #@! TA.AperFunction,Conductor*
%ADD39C,0.300000*%
G04 #@! TD*
G04 #@! TA.AperFunction,Conductor*
%ADD40C,0.150000*%
G04 #@! TD*
G04 APERTURE END LIST*
D10*
X94234000Y-75501000D03*
X94234000Y-73851000D03*
D11*
X93980000Y-72311500D03*
X93980000Y-70436500D03*
D12*
X89076000Y-67183000D03*
X92026000Y-67183000D03*
D13*
X94488000Y-69088000D03*
X93528000Y-69088000D03*
D14*
X97922000Y-58420000D03*
D15*
X96652000Y-60960000D03*
X95382000Y-58420000D03*
X94112000Y-60960000D03*
D16*
X96068000Y-81788000D03*
X97028000Y-81788000D03*
D17*
X93704400Y-47752000D03*
D18*
X98704400Y-47752000D03*
D19*
X98049800Y-83316600D03*
D20*
X97649800Y-83316600D03*
X97249800Y-83316600D03*
X96849800Y-83316600D03*
D21*
X96449800Y-83316600D03*
D22*
X95799800Y-83966600D03*
D23*
X95799800Y-84366600D03*
X95799800Y-84766600D03*
X95799800Y-85166600D03*
D24*
X95799800Y-85566600D03*
D25*
X96449800Y-86216600D03*
D20*
X96849800Y-86216600D03*
X97249800Y-86216600D03*
X97649800Y-86216600D03*
D26*
X98049800Y-86216600D03*
D27*
X98699800Y-85566600D03*
D23*
X98699800Y-85166600D03*
X98699800Y-84766600D03*
X98699800Y-84366600D03*
D28*
X98699800Y-83966600D03*
D29*
X97249800Y-84766600D03*
D30*
X93878400Y-79298800D03*
D31*
X96418400Y-79298800D03*
X98958400Y-79298800D03*
D10*
X92710000Y-75501000D03*
X92710000Y-73851000D03*
D30*
X88900000Y-71120000D03*
D31*
X88900000Y-73660000D03*
X88900000Y-76200000D03*
X88900000Y-78740000D03*
X88900000Y-81280000D03*
X88900000Y-83820000D03*
X88900000Y-86360000D03*
X88900000Y-88900000D03*
X104140000Y-88900000D03*
X104140000Y-86360000D03*
X104140000Y-83820000D03*
X104140000Y-81280000D03*
X104140000Y-78740000D03*
X104140000Y-76200000D03*
X104140000Y-73660000D03*
X104140000Y-71120000D03*
D32*
X97372400Y-88780300D03*
X95972400Y-88780300D03*
D33*
X98933000Y-62738000D03*
X99953000Y-62738000D03*
D13*
X94813000Y-89154000D03*
X93853000Y-89154000D03*
D34*
X96266000Y-75308000D03*
X97536000Y-75308000D03*
X98806000Y-75308000D03*
X100076000Y-75308000D03*
X100076000Y-70358000D03*
X98806000Y-70358000D03*
X97536000Y-70358000D03*
X96266000Y-70358000D03*
D11*
X91948000Y-72311500D03*
X91948000Y-70436500D03*
D35*
X94552000Y-65786000D03*
X101282000Y-65786000D03*
D16*
X98580000Y-89154000D03*
X99540000Y-89154000D03*
D36*
X100584000Y-89154000D03*
X100076000Y-68580000D03*
X94996000Y-81026000D03*
X92710000Y-89154000D03*
X92026000Y-67183000D03*
X97249800Y-84709000D03*
X99882000Y-81915000D03*
X99822000Y-86106000D03*
X90932000Y-77724000D03*
X94234000Y-76708000D03*
X92710000Y-76708000D03*
X94488000Y-86868000D03*
X100711000Y-87503000D03*
X99822000Y-88265000D03*
X93726000Y-86360000D03*
X100584000Y-77724000D03*
X99568000Y-81026000D03*
D37*
X96266000Y-70358000D02*
X96266000Y-71120000D01*
D38*
X96849800Y-82569800D02*
X96068000Y-81788000D01*
D39*
X91948000Y-70436500D02*
X89583500Y-70436500D01*
X93980000Y-70436500D02*
X91948000Y-70436500D01*
X89076000Y-67183000D02*
X89076000Y-70944000D01*
D37*
X94488000Y-69088000D02*
X94996000Y-69088000D01*
D39*
X90678000Y-76098400D02*
X93878400Y-79298800D01*
X89076000Y-70944000D02*
X88900000Y-71120000D01*
D37*
X94996000Y-69088000D02*
X96266000Y-70358000D01*
D39*
X104140000Y-71120000D02*
X102870000Y-72390000D01*
X94838761Y-81788000D02*
X93878400Y-80827639D01*
D37*
X89583500Y-70436500D02*
X88900000Y-71120000D01*
D39*
X96266000Y-70358000D02*
X94058500Y-70358000D01*
X90678000Y-72898000D02*
X90678000Y-76098400D01*
X88900000Y-71120000D02*
X90678000Y-72898000D01*
X96068000Y-81788000D02*
X94838761Y-81788000D01*
D37*
X94058500Y-70358000D02*
X93980000Y-70436500D01*
D39*
X95933500Y-72390000D02*
X93980000Y-70436500D01*
D38*
X96393000Y-70358000D02*
X96393000Y-69724397D01*
D39*
X93878400Y-80827639D02*
X93878400Y-79298800D01*
D38*
X96849800Y-83316600D02*
X96849800Y-82569800D01*
D39*
X102870000Y-72390000D02*
X95933500Y-72390000D01*
D40*
X97249800Y-84766600D02*
X97249800Y-84709000D01*
D37*
X93853000Y-89154000D02*
X92710000Y-89154000D01*
D40*
X97249800Y-84709000D02*
X97249800Y-83316600D01*
X97249800Y-83316600D02*
X97249800Y-82009800D01*
X97249800Y-82009800D02*
X97028000Y-81788000D01*
D37*
X96266000Y-81026000D02*
X94996000Y-81026000D01*
D38*
X92026000Y-67183000D02*
X93528000Y-68685000D01*
D37*
X97028000Y-81788000D02*
X97028000Y-81280000D01*
D38*
X100076000Y-70358000D02*
X100076000Y-68580000D01*
D37*
X96774000Y-81026000D02*
X96266000Y-81026000D01*
D39*
X99540000Y-89154000D02*
X100584000Y-89154000D01*
D37*
X97028000Y-81280000D02*
X96774000Y-81026000D01*
D38*
X93528000Y-68685000D02*
X93528000Y-69088000D01*
X97746100Y-89154000D02*
X97372400Y-88780300D01*
X98580000Y-89154000D02*
X97746100Y-89154000D01*
D40*
X97360800Y-88791900D02*
X97372400Y-88780300D01*
X96849800Y-86216600D02*
X96849800Y-88257700D01*
X96849800Y-88257700D02*
X97372400Y-88780300D01*
D38*
X95598700Y-89154000D02*
X95972400Y-88780300D01*
X94813000Y-89154000D02*
X95598700Y-89154000D01*
D40*
X95961200Y-88791500D02*
X95972400Y-88780300D01*
X96449800Y-86216600D02*
X96449800Y-88302900D01*
X96449800Y-88302900D02*
X95972400Y-88780300D01*
X94234000Y-72565500D02*
X93980000Y-72311500D01*
X94234000Y-73851000D02*
X94234000Y-72565500D01*
X92710000Y-73851000D02*
X92710000Y-73073500D01*
X92710000Y-73073500D02*
X91948000Y-72311500D01*
D38*
X96652000Y-58044000D02*
X96429400Y-57821400D01*
D40*
X98430000Y-62738000D02*
X96652000Y-60960000D01*
X98933000Y-62738000D02*
X98430000Y-62738000D01*
D38*
X98806000Y-68895499D02*
X98806000Y-70358000D01*
X96652000Y-60960000D02*
X95917100Y-61694900D01*
X96652000Y-60960000D02*
X96652000Y-58044000D01*
X95917100Y-62070900D02*
X98396000Y-64549800D01*
D40*
X98933000Y-62738000D02*
X98933000Y-62529800D01*
D38*
X95917100Y-61694900D02*
X95917100Y-62070900D01*
X96429400Y-57821400D02*
X96429400Y-50027000D01*
X98396000Y-68485499D02*
X98806000Y-68895499D01*
X96429400Y-50027000D02*
X98704400Y-47752000D01*
X98396000Y-64549800D02*
X98396000Y-68485499D01*
X95979400Y-57822600D02*
X95382000Y-58420000D01*
X95382000Y-58420000D02*
X95382000Y-62172200D01*
X93704400Y-47752000D02*
X95979400Y-50027000D01*
X97536000Y-68895499D02*
X97536000Y-70358000D01*
X97946000Y-64736200D02*
X97946000Y-65786000D01*
X95382000Y-62172200D02*
X97946000Y-64736200D01*
X94513400Y-47142400D02*
X93704400Y-47142400D01*
D40*
X94552000Y-65786000D02*
X97946000Y-65786000D01*
D38*
X97946000Y-68485499D02*
X97536000Y-68895499D01*
X97946000Y-65786000D02*
X97946000Y-68485499D01*
X95979400Y-50027000D02*
X95979400Y-57822600D01*
D40*
X99882000Y-83657624D02*
X99173024Y-84366600D01*
X99882000Y-81915000D02*
X99882000Y-83657624D01*
X99173024Y-84366600D02*
X98699800Y-84366600D01*
X89446600Y-84366600D02*
X88900000Y-83820000D01*
X95799800Y-84366600D02*
X89446600Y-84366600D01*
X98049800Y-86216600D02*
X98160400Y-86106000D01*
X98160400Y-86106000D02*
X99822000Y-86106000D01*
X93541400Y-84766600D02*
X91948000Y-86360000D01*
X91948000Y-86360000D02*
X88900000Y-86360000D01*
X95799800Y-84766600D02*
X93541400Y-84766600D01*
X99822000Y-86995000D02*
X101393026Y-85423974D01*
X101393026Y-85423974D02*
X101393026Y-84582000D01*
X97649800Y-86216600D02*
X97649800Y-86689824D01*
X101393026Y-76406974D02*
X101393026Y-84582000D01*
X97649800Y-86689824D02*
X97954976Y-86995000D01*
X97954976Y-86995000D02*
X99822000Y-86995000D01*
X104140000Y-73660000D02*
X101393026Y-76406974D01*
X90678000Y-78740000D02*
X88900000Y-78740000D01*
X90678000Y-78740000D02*
X90678000Y-77978000D01*
X94234000Y-75501000D02*
X94234000Y-76708000D01*
X90678000Y-77978000D02*
X90932000Y-77724000D01*
X95254600Y-83316600D02*
X90678000Y-78740000D01*
X96449800Y-83316600D02*
X95254600Y-83316600D01*
X88900000Y-76570400D02*
X88900000Y-76200000D01*
X94299600Y-77470000D02*
X93472000Y-77470000D01*
X95003400Y-79474791D02*
X95003400Y-78173800D01*
X92710000Y-76708000D02*
X92710000Y-75501000D01*
X97649800Y-82855594D02*
X97663000Y-82842394D01*
X97649800Y-80999774D02*
X97168026Y-80518000D01*
X96046609Y-80518000D02*
X95003400Y-79474791D01*
X97649800Y-82855594D02*
X97649800Y-80999774D01*
X93472000Y-77470000D02*
X92710000Y-76708000D01*
X97168026Y-80518000D02*
X96046609Y-80518000D01*
X95003400Y-78173800D02*
X94299600Y-77470000D01*
X97649800Y-83316600D02*
X97649800Y-82855594D01*
X97249800Y-86784799D02*
X97249800Y-86216600D01*
X104140000Y-76200000D02*
X102378026Y-76200000D01*
X99935974Y-87376000D02*
X97841001Y-87376000D01*
X102378026Y-76200000D02*
X101743026Y-76835000D01*
X101743026Y-85568948D02*
X99935974Y-87376000D01*
X97841001Y-87376000D02*
X97249800Y-86784799D01*
X101743026Y-76835000D02*
X101743026Y-85568948D01*
X104140000Y-81280000D02*
X102616000Y-81280000D01*
X94488000Y-86868000D02*
X94488000Y-85979000D01*
X102616000Y-81280000D02*
X102108000Y-81788000D01*
X94488000Y-85979000D02*
X94900400Y-85566600D01*
X102108000Y-86360000D02*
X100965000Y-87503000D01*
X94900400Y-85566600D02*
X95799800Y-85566600D01*
X100965000Y-87503000D02*
X100711000Y-87503000D01*
X102108000Y-81788000D02*
X102108000Y-86360000D01*
X91948000Y-81280000D02*
X94634600Y-83966600D01*
X94634600Y-83966600D02*
X95799800Y-83966600D01*
X88900000Y-81280000D02*
X91948000Y-81280000D01*
X104140000Y-83820000D02*
X102997000Y-83820000D01*
X102489000Y-86614000D02*
X101346000Y-87757000D01*
X93726000Y-86360000D02*
X93726000Y-86246026D01*
X100838000Y-88265000D02*
X99822000Y-88265000D01*
X94805426Y-85166600D02*
X95799800Y-85166600D01*
X101346000Y-87757000D02*
X100838000Y-88265000D01*
X93726000Y-86246026D02*
X94805426Y-85166600D01*
X102489000Y-84328000D02*
X102489000Y-86614000D01*
X102997000Y-83820000D02*
X102489000Y-84328000D01*
X101282000Y-66167000D02*
X101282000Y-64067000D01*
X101282000Y-64067000D02*
X99953000Y-62738000D01*
X97833400Y-80307400D02*
X98049800Y-80523800D01*
X97833400Y-78572105D02*
X97833400Y-80307400D01*
X97833400Y-78572105D02*
X96266000Y-77004705D01*
X98049800Y-80523800D02*
X98049800Y-83316600D01*
X96266000Y-77004705D02*
X96266000Y-75308000D01*
X101043026Y-78996199D02*
X98806000Y-76759173D01*
X99986375Y-85166600D02*
X101043026Y-84109949D01*
X101043026Y-84109949D02*
X101043026Y-78996199D01*
X98699800Y-85166600D02*
X99986375Y-85166600D01*
X98806000Y-76759173D02*
X98806000Y-75308000D01*
X100584000Y-77724000D02*
X100584000Y-76959000D01*
X100076000Y-76451000D02*
X100076000Y-75308000D01*
X100584000Y-76959000D02*
X100076000Y-76451000D01*
X98699800Y-81894200D02*
X99568000Y-81026000D01*
X98699800Y-83966600D02*
X98699800Y-81894200D01*
X99017295Y-77766705D02*
X100693026Y-79442435D01*
X97536000Y-76285410D02*
X97536000Y-75308000D01*
X99017295Y-77766705D02*
X97536000Y-76285410D01*
X99891400Y-84766600D02*
X98699800Y-84766600D01*
X100693026Y-79442435D02*
X100693026Y-83964974D01*
X100693026Y-83964974D02*
X99891400Y-84766600D01*
M02*
