M48
; DRILL file {KiCad 8.0.8} date 2025-05-02T07:15:47-0400
; FORMAT={-:-/ absolute / metric / decimal}
; #@! TF.CreationDate,2025-05-02T07:15:47-04:00
; #@! TF.GenerationSoftware,Kicad,Pcbnew,8.0.8
; #@! TF.FileFunction,Plated,1,2,PTH
FMAT,2
METRIC
; #@! TA.AperFunction,Plated,PTH,ViaDrill
T1C0.300
; #@! TA.AperFunction,Plated,PTH,ComponentDrill
T2C0.900
; #@! TA.AperFunction,Plated,PTH,ComponentDrill
T3C1.000
; #@! TA.AperFunction,Plated,PTH,ComponentDrill
T4C1.300
%
G90
G05
T1
X90.932Y-77.724
X92.026Y-67.183
X92.71Y-76.708
X92.71Y-89.154
X93.726Y-86.36
X94.234Y-76.708
X94.488Y-86.868
X94.996Y-81.026
X97.25Y-84.709
X99.568Y-81.026
X99.822Y-86.106
X99.822Y-88.265
X99.882Y-81.915
X100.076Y-68.58
X100.584Y-77.724
X100.584Y-89.154
X100.711Y-87.503
T2
X94.112Y-60.96
X95.382Y-58.42
X96.652Y-60.96
X97.922Y-58.42
T3
X88.9Y-71.12
X88.9Y-73.66
X88.9Y-76.2
X88.9Y-78.74
X88.9Y-81.28
X88.9Y-83.82
X88.9Y-86.36
X88.9Y-88.9
X93.878Y-79.299
X96.418Y-79.299
X98.958Y-79.299
X104.14Y-71.12
X104.14Y-73.66
X104.14Y-76.2
X104.14Y-78.74
X104.14Y-81.28
X104.14Y-83.82
X104.14Y-86.36
X104.14Y-88.9
T4
X93.704Y-47.752
X98.704Y-47.752
M30
